/* XPM */
static char *result[] = {
/* columns rows colors chars-per-pixel */
"64 64 7 1 ",
"  c black",
". c #9D2B2B",
"X c red",
"o c #FF6F6F",
"O c #FFA6A6",
"+ c white",
"@ c None",
/* pixels */
"@@@@@@@@@@@@@@@@@@@@@@@@@@@@@@@@@@@@@@@@@@@@@@@@@@@@@@@@@@@@@@@@",
"@@@@@@@@@@@@@@@@@@@@@@@@@@@@@@@@@@@@@@@@@@@@@@@@@@@@@@@@@@@@@@@@",
"@@@@@@@@@@@@@@@@@@@@@@@@@@@@@@@@@@@@@@@@@@@@@@@@@@@@@@@@@@@@@@@@",
"@@@@@@@@@@@@@@@@@@@@@@@@   @@@@@@@@@@@@@@@@@@@@@@@@@@@@@@@@@@@@@",
"@@@@@@@@@@@@@@@@@@@@@@@@   @@@@@@@@@@@@@@@@@@@@@@@@@@@@@@@@@@@@@",
"@@@@@@@@@@@@@@@@@@@@@@@@@@ @@@@@@@@@@@@@@@@@@@@@@@@@@@@@@@@@@@@@",
"@@@@@@@@@@@@@@@@@@@@@@@@@@@ @@@@@@@@@@@@@@@@@@@@@@@@@@@@@@@@@@@@",
"@@@@@@@@@@@@@@@@@@@@@@@@@@@@ @@@@@@@@@@@@@@@@@@@@@@@@@@@@@@@@@@@",
"@@@@@@@@@@@@@@@@@@@@@@@@@@@@ @@@@@@@@@@@@@@@@@@@@@@@@@@@@@@@@@@@",
"@@@@@@@@@@@@oooooooooooo@@@@ @@@@@@@@@oooooooooo@@@@@@@@@@@@@@@@",
"@@@@@@@@@@oooooooooooooooo@@  @@@@@@ooooooooooooOO@@@@@@@@@@@@@@",
"@@@@@@@@@XXXXXXXXoooooooooooo ooooooooXXXXXXXXXoooO@@@@@@@@@@@@@",
"@@@@@@@@XXXXXXXXXXXXXXXooooooooooooooXXXXXXXXXXXoooO@@@@@@@@@@@@",
"@@@@@@@@XXXXXXXXXXXXXXXXXoooooooooooXXXXXXXXXXXXXXooo@@@@@@@@@@@",
"@@@@@@@XXXXXXXXXXXXXXXXXXXoooooooXXXXXXXXXXXXXXXXXXoo@@@@@@@@@@@",
"@@@@@@XXXXXXXXXXXXXXXXXXXXXoooooXXXXXXXXXXXXXXXXXXXooo@@@@@@@@@@",
"@@@@@XXXXXXXXXXXXXXXXXXXXXXXooXXXXXXXXXXXXXXXXXXXXXXoo@@@@@@@@@@",
"@@@..XXXXXXXXXXXXXXXXXXXXXXXXXXXXXXXXXXXXXXXXXXXXXXXXoo@@@@@@@@@",
"@@@..XXXXXXXXXXXXXXXXXXXXXXXXXXXXXXXXXXXXXXXXXXXXXXXXoo@@@@@@@@@",
"@@@..XXXXXXXXXXXXXXXXXXXXXXXXXXXXXXXXXXXXXXXXXXXXXXXXXX@@@@@@@@@",
"@@...XXXXXXXXXXXXXXXXXXXXXXXXXXXXXXXXXXXXXXXXXXXXXXXXXXX@@@@@@@@",
"@@...XXXXXXXXXXXXXXXXXXXXXXXXXXXXXXXXXXXXXXXXXXXXXXXXXXX@@@@@@@@",
"@@...XXXXXX    XXXXXXXXXXXXXXXXXXXXXXXXX          XXXXXXX@@@@@@@",
"@@...XXXXXXXXX        XXXXXXXXXXXXXXXXX +++++XXXXXXXXXXXX@@@@@@@",
"@@....XXXXXXXXXX+++++ XXXXXXXXXXXXXXXX X++++XXXXXXXXXXXXX@@@@@@@",
"@@....XXXXXXXXXXX++++XXXXXXXXXXXXXXXXXXX+++XXXXXXXXXXXXXX@@@@@@@",
"@@ ...XXXXXXXXXXXX+++XXXXXXXXXXXXXXXXXXXXXXXXXXXXXXXXXXX @@@@@@@",
"@@ ...XXXXXXXXXXXXXXXXXXXXXXXXXXXXXXXXXXXXXXXXXXXXXXXXXX @@@@@@@",
"@@ ...XXXXXXXXXXXXXXXXXXXXXXXXXXXXXXXXXXXXXXXXXXXXXXXXXX @@@@@@@",
"@@ ....XXXXXXXXXXXXXXXXXXXXXXXXXXXXXXXXXXXXXXXXXXXXXXXXX @@@@@@@",
"@@ ....XXXXXXXXXXXXXXXXXXXXXXXXXXXXXXXXXXXXXXXXXXXXXXXXX @@@@@@@",
"@@ ....XXXXXXXXXXXXXXXXXXXXXXXXXXXXXXXXXXXXXXXXXXXXXXXXX @@@@@@@",
"@@ ....XXXXXXXXXXXXXXXXXXXXXXXXXXXXXXXXXXXXXXXXXXXXXXXXX @@@@@@@",
"@@ .....XXXXXXXXXXXXXXXXXXXXXXXXXXXXXXXXXXXXXXXXXXXXXXXX @@@@@@@",
"@@ .....X XXXXXXXXXXXXXXXXXXXXXXXXXXXXXXXXXXXXXXXXXXXXX@ @@@@@@@",
"@@ .....X  XXXXXXXXXXXXXXXXXXXXXXXXXXXXXXXXXXXXXXX XXXX@ @@@@@@@",
"@@ @....XXX  XXXXXXXXXXXXXXXXXXXXXXXXXXXXXXXXXXXXX XXX@@ @@@@@@@",
"@@ @@....XXX  XXXXXXXXXXXXXXXXXXXXXXXXXXXXXXXXXXX  XXX@@ @@@@@@@",
"@@ @@....XXXXX  XXXXXXXXXXXXXXXXXXXXXXXXXXXXXXX   XXXX@@ @@@@@@@",
"@   @.....XXXXXX     XXXXXXXXXXXXXXXXXXXXX     XXXXXXX@@ @@@@@@@",
"@@  @@.....XXXXXX+++                      ++XXXXXXXXX@@   @@@@@@",
"@ @ @@@....XXXXXXXX++++XXXXXXXXXXXXXXX++++XXXXXXXXXXX@@  @ @@@@@",
"@@@@@@@.....XXXXXXXXXXXXXXXXXXXXXXXXXXXXXXXXXXXXXXXX@@@@ @@@@@@@",
"@@@@@@@......XXXXXXXXXXXXXXXXXXXXXXXXXXXXXXXXXXXXXXX@@@@@@@@@@@@",
"@@@@@@@@.....XXXXXXXXXXXXXXXXXXXXXXXXXXXXXXXXXXXX..@@@@@@@@@@@@@",
"@@@@@@@@......XXXXXXXXXXXXXXXXXXXXXXXXXXXXXXXXXX..@@@@@@@@@@@@@@",
"@@@@@@@@@......XXXXXXXXXXXXXXXXXXXXXXXXXXXXXX.....@@@@@@@@@@@@@@",
"@@@@@@@@@@......XXXXXXXXXXX.....XXXXXXXXXXXX.....@@@@@@@@@@@@@@@",
"@@@@@@@@@@@......XXXXXXX............XXXXXX......@@@@@@@@@@@@@@@@",
"@@@@@@@@@@@@........XX.........................@@@@@@@@@@@@@@@@@",
"@@@@@@@@@@@@@................................@@@@@@@@@@@@@@@@@@@",
"@@@@@@@@@@@@@@..............................@@@@@@@@@@@@@@@@@@@@",
"@@@@@@@@@@@@@@@@............@@@@..........@@@@@@@@@@@@@@@@@@@@@@",
"@@@@@@@@@@@@@@@@@ .......@@@@@@@@@.. ....@@@@@@@@@@@@@@@@@@@@@@@",
"@@@@@@@@@@@@@@@@@  @@@@@@@@@@@@@@@@@  @@@@@@@@@@@@@@@@@@@@@@@@@@",
"@@@@@@@@@@@@@@@@@ @@@@@@@@@@@@@@@@@@ @@@@@@@@@@@@@@@@@@@@@@@@@@@",
"@@@@@@@@@@@@@@@@@ @@@@@@@@@@@@@@@@@@ @@@@@@@@@@@@@@@@@@@@@@@@@@@",
"@@@@@@@@@@@@@@@@@ @@@@@@@@@@@@@@@@@@ @@@@@@@@@@@@@@@@@@@@@@@@@@@",
"@@@@@@@@@@@@@@@@@ @@@@@@@@@@@@@@@@@@ @@@@@@@@@@@@@@@@@@@@@@@@@@@",
"@@@@@@@@@@@@@@@@@ @@@@@@@@@@@@@@@@@@   @@@@@@@@@@@@@@@@@@@@@@@@@",
"@@@@@@@@@@@@@@@@@   @@@@@@@@@@@@@@@@@@  @@@@@@@@@@@@@@@@@@@@@@@@",
"@@@@@@@@@@@@@@@@@@@  @@@@@@@@@@@@@@@@@@@@@@@@@@@@@@@@@@@@@@@@@@@",
"@@@@@@@@@@@@@@@@@@@@@@@@@@@@@@@@@@@@@@@@@@@@@@@@@@@@@@@@@@@@@@@@",
"@@@@@@@@@@@@@@@@@@@@@@@@@@@@@@@@@@@@@@@@@@@@@@@@@@@@@@@@@@@@@@@@"
};
