/* XPM */
static char *result[] = {
/* columns rows colors chars-per-pixel */
"64 64 20 1 ",
"  c #170625",
". c #1C1030",
"X c #8F3734",
"o c #C52E29",
"O c #C62F29",
"+ c #DF433C",
"@ c #E74D27",
"# c #E74E28",
"$ c #E84E28",
"% c #E0453C",
"& c #F16B33",
"* c #F16C33",
"= c #F16C35",
"- c #F7892E",
"; c #F78A2E",
": c #FCA144",
"> c #FCA045",
", c #FCA245",
"< c #FFCB53",
"1 c None",
/* pixels */
"1111111111111111111111111111111111111111111111111111111111111111",
"1111111111111111111111111111111111111111111111111111111111111111",
"1111111111111111111111111111111111111111111111111111111111111111",
"1111111111111111111111111111111111111111111111111111111111111111",
"1111111111111111111111111111111111111111111111111111111111111111",
"1111111111111111111111111111111111111111111111111111111111111111",
"1111111111111111111111111111111111111111111111111111111111111111",
"1111111111111111111111111111111111111111111111111111111111111111",
"1111111111111                  111111111111111111111111111111111",
"111111111111 ...................11111111111111111111111111111111",
"111111111111...........XXXXXX...11111111111111111111111111111111",
"11111111111...XXXXXXXXXXXXXXXXXXX1111111111111111111111111111111",
"111111111 ..XXXXXXXXXXXXooooXXXXX. 11111111111111111111111111111",
"11111111...XXXXXXoooooOOOOOOOooXXX. 1111111111111111111111111111",
"11111111XXXXXXXOO+%####%%%++OOooXXX.1111111111111111111111111111",
"1111111XXXXXOO%%&====-===%%++OOoXXXXX111111111111111111111111111",
"11111.XXXO%%%#&==-;>>:>;=&#@@@@OooXXX..1111111111111111111111111",
"1111 .XXO##&&&==-;>,,,,:-=$#@@@+OooXX.. 111111111111111111111111",
"1111 .XXO#&&&&==->>,,<,,>-*&$#@@OOoXX.. 111111111111111111111111",
"1111  XXX%##&&&==->:,,,,:>-=&##@+OOoXX. 111111111111111111111111",
"1111  .XXO+%##&&*=-;::,,,,>;=&%+@@OoXX. 111111111111111111111111",
"1111...XXXO+##$$&&**-;:,,,,>-=%%#@@oXX. 111111111111111111111111",
"1111XXXXXXO%#&&&&&&**-;:,,,,>==&##@OXX..111111111111111111111111",
"111XXXXXO%#&===**&&&**-;:,,,>>-==#%OXXX..11111111111111111111111",
" .XXXO##&**=-----***&&*-;:,,,,>>==%OXXXX..     11111111111111111",
" .XXO#&***--;;;;;--*&&&*-;:,,,,>-=%OoXXXX..  ...1111111111111111",
" .XXO#&***--;;;;;;--*&&&*-;:,<,,-=+OoXXXXXX.....1111111111111111",
" .XXO##&***===-;;;;--*&&**-:,,,>=%OoooXXXXXXXXXXX111111111111111",
" .XXoO###%%%XX==;;;;--**&**;:,,>=%ooooooXXXXXXXXX. 1111111111111",
" .XXXOOOOXXXXXX==;>>;--*&&*-;>>;=%XooooooooooooXXX. 111111111111",
" ..XXoooXXXXXXXX=-;;;;-*&$&=-;>-=%OOOOooOOOOOOooXXX.111111111111",
"  .XXXXXXXX...XXX==;;;;-&##&=---===%OOOOOOOOOOOoXXXXX11111111111",
"  .XXXXXXX.. ..XXX==;;;-&###*=----==#OOOO++++@OOooXXX. 111111111",
"  .XXXXXX.......XXX=-;;-&#+#&==-;;-=&%OO++%%##@@OooXXX. 11111111",
"  .XXXXXX..  .. ..XX=;;=&%O%#&=-;;;-=#++%%##&&##+OoXXXX.11111111",
"  ..XXXX..   .   .XX=--=&OO+#&=--;--=####&=====&#+OoXXXXX1111111",
"111.......  1.   .XX&===%OOO#&==---==&&&*==----==%+OooXXX. 11111",
"1111.....11111   .XX#&=&%OOO#&&=====&&&**--;;>;-=%+OOooXX.. 1111",
"1111 ...111111   .XX%&&#%OOO%#&&&&&&&&&**--;>>>>==%%+OoXXX..1111",
"11111  11111111  .XX%&&#%OOO%%######$&&&**-;:,,>;=&#%+OoXXX..111",
"111111111111111  .XX%&&&#%+OOOOO++###$$$&&-;,,,,>-=&#%OoXXXX..  ",
"111111111111111  .XX%#&&###+OOOOO+%###$$$&*;,,<,:;-=&%+OoXXXX.  ",
"1111111111111111 .XXO#######+OOO%#&&***&&&*;:,,,:;-==&%+OXXXX.  ",
"1111111111111111 .XXXO%#######&==--;;;;-***->:,,:>;-==&#%OoXX.. ",
"111111111111111111XXXXXO#&&&**=;>:,,,,,>;----;;>>>>;-=*&##OXXX. ",
"1111111111111111111.XXXX%#&**-->,,<<<<,,:;--**=-;>>>;--*&#OoXX. ",
"11111111111111111111..XXO#&***-;,,,<<<,,::;-***=-;;;;--*&#OoXX. ",
"11111111111111111111 .XXXO###**-;>,,,,,,,,:;-***=---;--*##OXXX. ",
"1111111111111111111111.XXXXXXXXXXX=XX=;>,,,:;-***==*---*#XXXX111",
"11111111111111111111111.XXXXXXXXXXXXXXX;,,,,:;-*&##**-**OXXX1111",
"111111111111111111111111..............XX>,,,:;-*&##&***#XX. 1111",
"1111111111111111111111111            .XX=>::;;--*&##&&#XXX.11111",
"11111111111111111111111111111         .XXX=------**##XXXX1111111",
"1111111111111111111111111111111111111..XXXX#*-----*&XXXX11111111",
"111111111111111111111111111111111111111...XX#*----*&XX. 11111111",
"1111111111111111111111111111111111111111  XXX#***-*#XX. 11111111",
"11111111111111111111111111111111111111111 .XXXO#***#XX. 11111111",
"1111111111111111111111111111111111111111111.XXXO#&&#XX. 11111111",
"11111111111111111111111111111111111111111111..XXO##OXX. 11111111",
"111111111111111111111111111111111111111111111 XXXOOXXX.111111111",
"1111111111111111111111111111111111111111111111.XXXXXX11111111111",
"11111111111111111111111111111111111111111111111.XXXX111111111111",
"11111111111111111111111111111111111111111111111.....111111111111",
"11111111111111111111111111111111111111111111111     111111111111"
};
