/* XPM */
static char *result[] = {
/* columns rows colors chars-per-pixel */
"64 64 6 1 ",
"  c #462E1A",
". c #5F3F25",
"X c #FB4848",
"o c gray67",
"O c #CDCDCD",
"+ c None",
/* pixels */
"++++++++++++++++++++++++++++++++++++++++++++++++++++++++++++++++",
"++++++++++++++++++++++++++++++++++++++++++++++++++++++++++++++++",
"++++++++++++++++++++++++++++++++++++++++++++++++++++++++++++++++",
"++++++++++++++++++++++++++++++++++++++++++++++++++++++++++++++++",
"++++++++++++++++++++++++++++++++++++++++++++++++++++++++++++++++",
"++++++++++++++++++++++++++++++++++++++++++++++++++++++++++++++++",
"++++++++++++++++++++++++++++++++++++++++++++++++++++++++++++++++",
"++++++++++++++++++++++++++++++++++++++++++++++++++++++++++++++++",
"++++++++++++++++++++++++++++++++++++++++++++++++++++++++++++++++",
"++++++++++++++++++++++++++++++++++++++++++++++++++++++++++++++++",
"++++++++++++++++++++++++++++++++++++++++++++++++++++++++++++++++",
"++++++++++++++++++++++++++++++++++++++++++++++++++++++++++++++++",
"++++++++++++++++++++++++++++++++++++++++++++++++++++++++++++++++",
"++++++++++++++++++++++++++++++++++++++++++++++++++++++++++++++++",
"++++++++++++++++++OOOOOOOOOOXXXXOOOOOOOOOOOOOO++++++++++++++++++",
"++++++++++++++++++OOOOOOOOOOXXXXOOOOOOOOOOOOOO++++++++++++++++++",
"++++++++++++++++++OOOOOOOOOOXXXXOOOOOOOOOOOOOO++++++++++++++++++",
"++++++++++++++++++OOOOOOOOOOXXXXOOOOOOOOOOOOOO++++++++++++++++++",
"++++++++++OOOOOOOOOOOOOOOOOOOOOOOOOOOOOOOOOOOOXXXXOOOO++++++++++",
"++++++++++OOOOOOOOOOOOOOOOOOOOOOOOOOOOOOOOOOOOXXXXOOOO++++++++++",
"++++++++++OOOOOOOOOOOOOOOOOOOOOOOOOOOOOOOOOOOOXXXXOOOO++++++++++",
"++++++++++OOOOOOOOOOOOOOOOOOOOOOOOOOOOOOOOOOOOXXXXOOOO++++++++++",
"++++++++++OOOOOOOOXXXXOOOOOOOOOOOOOOOOOOOOOOOOOOOOOOOO++++++++++",
"++++++++++OOOOOOOOXXXXOOOOOOOOOOOOOOOOOOOOOOOOOOOOOOOO++++++++++",
"++++++++++OOOOOOOOXXXXOOOOOOOOOOOOOOOOOOOOOOOOOOOOOOOO++++++++++",
"++++++++++OOOOOOOOXXXXOOOOOOOOOOOOOOOOOOOOOOOOOOOOOOOO++++++++++",
"++++++++++ooooOOOOOOOOOOOOOOOOOOXXXXOOOOOOOOOOOOOOOOOO++++++++++",
"++++++++++ooooOOOOOOOOOOOOOOOOOOXXXXOOOOOOOOOOOOOOOOOO++++++++++",
"++++++++++ooooOOOOOOOOOOOOOOOOOOXXXXOOOOOOOOOOOOOOOOOO++++++++++",
"++++++++++ooooOOOOOOOOOOOOOOOOOOXXXXOOOOOOOOOOOOOOOOOO++++++++++",
"++++++++++ooooooooooooooooOOOOOOOOOOOOOOOOOOOOOOOOOOOO++++++++++",
"++++++++++ooooooooooooooooOOOOOOOOOOOOOOOOOOOOOOOOOOOO++++++++++",
"++++++++++ooooooooooooooooOOOOOOOOOOOOOOOOOOOOOOOOOOOO++++++++++",
"++++++++++ooooooooooooooooOOOOOOOOOOOOOOOOOOOOOOOOOOOO++++++++++",
"++++++++++oooo........oooooooooooooooooooo....OOOO....++++++++++",
"++++++++++oooo........oooooooooooooooooooo....OOOO....++++++++++",
"++++++++++oooo........oooooooooooooooooooo....OOOO....++++++++++",
"++++++++++oooo........oooooooooooooooooooo....OOOO....++++++++++",
"++++++++++    ........oooo............................++++++++++",
"++++++++++    ........oooo............................++++++++++",
"++++++++++    ........oooo............................++++++++++",
"++++++++++    ........oooo............................++++++++++",
"++++++++++        ....................................++++++++++",
"++++++++++        ....................................++++++++++",
"++++++++++        ....................................++++++++++",
"++++++++++        ....................................++++++++++",
"++++++++++++++        ............................++++++++++++++",
"++++++++++++++        ............................++++++++++++++",
"++++++++++++++        ............................++++++++++++++",
"++++++++++++++        ............................++++++++++++++",
"++++++++++++++++++                            ++++++++++++++++++",
"++++++++++++++++++                            ++++++++++++++++++",
"++++++++++++++++++                            ++++++++++++++++++",
"++++++++++++++++++                            ++++++++++++++++++",
"++++++++++++++++++++++++++++++++++++++++++++++++++++++++++++++++",
"++++++++++++++++++++++++++++++++++++++++++++++++++++++++++++++++",
"++++++++++++++++++++++++++++++++++++++++++++++++++++++++++++++++",
"++++++++++++++++++++++++++++++++++++++++++++++++++++++++++++++++",
"++++++++++++++++++++++++++++++++++++++++++++++++++++++++++++++++",
"++++++++++++++++++++++++++++++++++++++++++++++++++++++++++++++++",
"++++++++++++++++++++++++++++++++++++++++++++++++++++++++++++++++",
"++++++++++++++++++++++++++++++++++++++++++++++++++++++++++++++++",
"++++++++++++++++++++++++++++++++++++++++++++++++++++++++++++++++",
"++++++++++++++++++++++++++++++++++++++++++++++++++++++++++++++++"
};
