/* XPM */
static char *result[] = {
/* columns rows colors chars-per-pixel */
"64 64 8 1 ",
"  c #161A22",
". c #503625",
"X c #755338",
"o c #353E50",
"O c #434F65",
"+ c #5A6988",
"@ c #6F7F9F",
"# c gray57",
/* pixels */
"OOOOooooooooooooooooooooooooooooOOOOoooooooooooooooooooooooooooo",
"OOOOooooooooooooooooooooooooooooOOOOoooooooooooooooooooooooooooo",
"OOOOooooooooooooooooooooooooooooOOOOoooooooooooooooooooooooooooo",
"OOOOooooooooooooooooooooooooooooOOOOoooooooooooooooooooooooooooo",
"OOOO@@@@@@@@@@@@@@@@@@@@@@@@@@@@OOOO@@@@@@@@@@@@@@@@@@@@@@@@@@@@",
"OOOO@@@@@@@@@@@@@@@@@@@@@@@@@@@@OOOO@@@@@@@@@@@@@@@@@@@@@@@@@@@@",
"OOOO@@@@@@@@@@@@@@@@@@@@@@@@@@@@OOOO@@@@@@@@@@@@@@@@@@@@@@@@@@@@",
"OOOO@@@@@@@@@@@@@@@@@@@@@@@@@@@@OOOO@@@@@@@@@@@@@@@@@@@@@@@@@@@@",
"OOOO@@@@++++++++++++++++++++@@@@OOOO@@@@++++++++++++++++++++@@@@",
"OOOO@@@@++++++++++++++++++++@@@@OOOO@@@@++++++++++++++++++++@@@@",
"OOOO@@@@++++++++++++++++++++@@@@OOOO@@@@++++++++++++++++++++@@@@",
"OOOO@@@@++++++++++++++++++++@@@@OOOO@@@@++++++++++++++++++++@@@@",
"ooooooooOOOOooooooooooooooooooooooooooooooooooooooooOOOOoooooooo",
"ooooooooOOOOooooooooooooooooooooooooooooooooooooooooOOOOoooooooo",
"ooooooooOOOOooooooooooooooooooooooooooooooooooooooooOOOOoooooooo",
"ooooooooOOOOooooooooooooooooooooooooooooooooooooooooOOOOoooooooo",
"@@@@@@@@OOOOXXXX....XXXXXXXX....XXXXXXXXXXXX....XXXXOOOO@@@@@@@@",
"@@@@@@@@OOOOXXXX....XXXXXXXX....XXXXXXXXXXXX....XXXXOOOO@@@@@@@@",
"@@@@@@@@OOOOXXXX....XXXXXXXX....XXXXXXXXXXXX....XXXXOOOO@@@@@@@@",
"@@@@@@@@OOOOXXXX....XXXXXXXX....XXXXXXXXXXXX....XXXXOOOO@@@@@@@@",
"++++@@@@OOOOXXXX....XXXXXXXX....XXXXXXXXXXXX....XXXXOOOO@@@@++++",
"++++@@@@OOOOXXXX....XXXXXXXX....XXXXXXXXXXXX....XXXXOOOO@@@@++++",
"++++@@@@OOOOXXXX....XXXXXXXX....XXXXXXXXXXXX....XXXXOOOO@@@@++++",
"++++@@@@OOOOXXXX....XXXXXXXX....XXXXXXXXXXXX....XXXXOOOO@@@@++++",
"++++++++OOOOXXXX....XXXX################XXXX....XXXXOOOO++++++++",
"++++++++OOOOXXXX....XXXX################XXXX....XXXXOOOO++++++++",
"++++++++OOOOXXXX....XXXX################XXXX....XXXXOOOO++++++++",
"++++++++OOOOXXXX....XXXX################XXXX....XXXXOOOO++++++++",
"ooooooooooooXXXX....####XXXX....XXXXXXXX####....XXXXoooooooooooo",
"ooooooooooooXXXX....####XXXX....XXXXXXXX####....XXXXoooooooooooo",
"ooooooooooooXXXX....####XXXX....XXXXXXXX####....XXXXoooooooooooo",
"ooooooooooooXXXX....####XXXX....XXXXXXXX####....XXXXoooooooooooo",
"@@@@@@@@ooooXXXX....####XXXX....XXXXXXXX####....XXXXoooo@@@@@@@@",
"@@@@@@@@ooooXXXX....####XXXX....XXXXXXXX####....XXXXoooo@@@@@@@@",
"@@@@@@@@ooooXXXX....####XXXX....XXXXXXXX####....XXXXoooo@@@@@@@@",
"@@@@@@@@ooooXXXX....####XXXX....XXXXXXXX####....XXXXoooo@@@@@@@@",
"++++@@@@ooooXXXX################################XXXXoooo@@@@++++",
"++++@@@@ooooXXXX################################XXXXoooo@@@@++++",
"++++@@@@ooooXXXX################################XXXXoooo@@@@++++",
"++++@@@@ooooXXXX################################XXXXoooo@@@@++++",
"++++++++ooooXXXX############        ############XXXXoooo++++++++",
"++++++++ooooXXXX############        ############XXXXoooo++++++++",
"++++++++ooooXXXX############        ############XXXXoooo++++++++",
"++++++++ooooXXXX############        ############XXXXoooo++++++++",
"ooooooooOOOOXXXX################    ############XXXXOOOOoooooooo",
"ooooooooOOOOXXXX################    ############XXXXOOOOoooooooo",
"ooooooooOOOOXXXX################    ############XXXXOOOOoooooooo",
"ooooooooOOOOXXXX################    ############XXXXOOOOoooooooo",
"@@@@@@@@OOOOXXXX################    ############XXXXOOOO@@@@@@@@",
"@@@@@@@@OOOOXXXX################    ############XXXXOOOO@@@@@@@@",
"@@@@@@@@OOOOXXXX################    ############XXXXOOOO@@@@@@@@",
"@@@@@@@@OOOOXXXX################    ############XXXXOOOO@@@@@@@@",
"++++@@@@OOOOXXXX....########################....XXXXOOOO@@@@++++",
"++++@@@@OOOOXXXX....########################....XXXXOOOO@@@@++++",
"++++@@@@OOOOXXXX....########################....XXXXOOOO@@@@++++",
"++++@@@@OOOOXXXX....########################....XXXXOOOO@@@@++++",
"++++++++OOOOXXXX....XXXXXXXX....XXXXXXXXXXXX....XXXXOOOO++++++++",
"++++++++OOOOXXXX....XXXXXXXX....XXXXXXXXXXXX....XXXXOOOO++++++++",
"++++++++OOOOXXXX....XXXXXXXX....XXXXXXXXXXXX....XXXXOOOO++++++++",
"++++++++OOOOXXXX....XXXXXXXX....XXXXXXXXXXXX....XXXXOOOO++++++++",
"OOOOOOOOOOOOOOOOOOOOOOOOOOOOOOOOOOOOOOOOOOOOOOOOOOOOOOOOOOOOOOOO",
"OOOOOOOOOOOOOOOOOOOOOOOOOOOOOOOOOOOOOOOOOOOOOOOOOOOOOOOOOOOOOOOO",
"OOOOOOOOOOOOOOOOOOOOOOOOOOOOOOOOOOOOOOOOOOOOOOOOOOOOOOOOOOOOOOOO",
"OOOOOOOOOOOOOOOOOOOOOOOOOOOOOOOOOOOOOOOOOOOOOOOOOOOOOOOOOOOOOOOO"
};
