/* XPM */
static char *result[] = {
/* columns rows colors chars-per-pixel */
"64 64 173 2 ",
"   c #57403F",
".  c #58403D",
"X  c #58403E",
"o  c #5B423F",
"O  c #4F3F47",
"+  c #503F47",
"@  c #534043",
"#  c #554041",
"$  c #574142",
"%  c #564143",
"&  c #534044",
"*  c #524045",
"=  c #514046",
"-  c #504047",
";  c #514047",
":  c #524046",
">  c #534046",
",  c #524047",
"<  c #534147",
"1  c #544044",
"2  c #554144",
"3  c #554145",
"4  c #574245",
"5  c #544146",
"6  c #544147",
"7  c #574247",
"8  c #584140",
"9  c #5A4240",
"0  c #5B4241",
"q  c #584142",
"w  c #5B4342",
"e  c #5D4340",
"r  c #584244",
"t  c #594244",
"y  c #594344",
"u  c #594345",
"i  c #5C4444",
"p  c #5D4444",
"a  c #5E4444",
"s  c #5F4545",
"d  c #5E4547",
"f  c #544148",
"g  c #554248",
"h  c #564248",
"j  c #574348",
"k  c #584348",
"l  c #594349",
"z  c #594449",
"x  c #5A4448",
"c  c #5C4549",
"v  c #5D4549",
"b  c #5E4649",
"n  c #5C454A",
"m  c #5E454A",
"M  c #5E464A",
"N  c #604542",
"B  c #614543",
"V  c #634643",
"C  c #644643",
"Z  c #644743",
"A  c #654743",
"S  c #624644",
"D  c #634644",
"F  c #604546",
"G  c #674844",
"H  c #664846",
"J  c #664847",
"K  c #674847",
"L  c #674947",
"P  c #6B4A47",
"I  c #6C4B46",
"U  c #6D4B47",
"Y  c #6E4C47",
"T  c #614749",
"R  c #624749",
"E  c #62474A",
"W  c #634849",
"Q  c #63484B",
"!  c #654848",
"~  c #654949",
"^  c #64484A",
"/  c #684A4B",
"(  c #6A4B4A",
")  c #6B4B4A",
"_  c #6C4B48",
"`  c #6D4B48",
"'  c #6B4C4A",
"]  c #6D4C49",
"[  c #6E4C48",
"{  c #6F4D48",
"}  c #6D4C4A",
"|  c #6F4D4B",
" . c #694B4C",
".. c #694B4D",
"X. c #6C4C4D",
"o. c #6E4D4C",
"O. c #6E4D4D",
"+. c #6D4D4E",
"@. c #704D49",
"#. c #714D49",
"$. c #704D4A",
"%. c #704D4B",
"&. c #734F4A",
"*. c #724E4B",
"=. c #724F4B",
"-. c #734F4B",
";. c #744F4B",
":. c #714E4D",
">. c #734F4C",
",. c #744F4C",
"<. c #75504B",
"1. c #76504B",
"2. c #75504C",
"3. c #74504D",
"4. c #76514C",
"5. c #77514C",
"6. c #77514D",
"7. c #76514F",
"8. c #78514C",
"9. c #78514D",
"0. c #78524C",
"q. c #78524D",
"w. c #79524D",
"e. c #7A524D",
"r. c #7A534D",
"t. c #78514E",
"y. c #79524E",
"u. c #7A524E",
"i. c #7B534E",
"p. c #7C534E",
"a. c #7C544F",
"s. c #7D544F",
"d. c #7E544F",
"f. c #7E554F",
"g. c #755150",
"h. c #765150",
"j. c #795350",
"k. c #7A5350",
"l. c #7A5351",
"z. c #7B5452",
"x. c #7E5550",
"c. c #7F5550",
"v. c #7C5452",
"b. c #7F5552",
"n. c #805650",
"m. c #805651",
"M. c #815651",
"N. c #815751",
"B. c #825751",
"V. c #805652",
"C. c #815752",
"Z. c #835752",
"A. c #825753",
"S. c #835852",
"D. c #845852",
"F. c #855853",
"G. c #855953",
"H. c #865953",
"J. c #875953",
"K. c #845854",
"L. c #855954",
"P. c #865954",
"I. c #875954",
"U. c #865955",
"Y. c #875A54",
"T. c #875A55",
"R. c #885A55",
"E. c #895A55",
"W. c #895B55",
"Q. c #8A5B55",
"!. c #8A5B56",
"~. c #8B5C56",
"^. c #8C5C56",
/* pixels */
"O , k T ( =.4.8.8.5.5.5.5.5.5.5.5.5.5.5.5.5.5.5.5.5.5.5.5.5.5.5.5.5.5.5.5.5.5.5.5.5.5.5.5.5.5.5.5.5.5.8.8.4.*.( T j ; O + ; ; ; ",
", 6 x R ) =.4.5.8.5.5.5.5.5.5.5.5.5.5.5.5.5.5.5.5.5.5.5.5.5.5.5.5.5.5.5.5.5.5.5.5.5.5.5.5.5.5.5.5.5.5.8.5.4.=.' W x g , ; ; ; ; ",
"k x b ~ } -.4.5.5.5.5.5.5.5.5.5.5.5.5.5.5.5.5.5.5.5.5.5.5.5.5.5.5.5.5.5.5.5.5.5.5.5.5.5.5.5.5.5.5.5.5.5.5.4.>.| / E v l h < ; ; ",
"T R ~ ( %.,.4.5.5.5.5.5.5.5.5.5.5.5.5.5.5.5.5.5.5.5.5.5.5.5.5.5.5.5.5.5.5.5.5.5.5.5.5.5.5.5.5.5.5.5.5.5.5.5.2.3.:.O. .Q n h , - ",
"( ) } %.-.2.5.5.5.5.5.5.5.5.5.5.5.5.5.5.5.5.5.5.5.5.5.5.5.5.5.5.5.5.5.5.5.5.5.5.5.5.5.5.5.5.5.5.5.5.5.5.5.5.9.y.k.j.g.+.Q z < - ",
"=.=.-.,.2.4.5.5.5.5.5.5.5.5.5.5.5.5.5.5.5.5.5.5.5.5.5.5.5.5.5.5.5.5.5.5.5.5.5.5.5.5.5.5.5.5.5.5.5.5.5.5.5.8.u.x.C.A.b.h...c < + ",
"4.4.4.4.5.5.5.5.5.5.5.5.5.5.5.5.5.5.5.5.5.5.5.5.5.5.5.5.5.5.5.5.5.5.5.5.5.5.5.5.5.5.5.5.5.5.5.5.5.5.5.5.5.8.i.n.G.T.K.l.X.M f + ",
"8.5.5.5.5.5.5.5.5.5.5.5.5.5.5.5.5.5.5.5.5.5.5.5.5.5.5.5.5.5.5.5.5.5.5.5.5.5.5.5.5.5.5.5.5.5.5.5.5.5.5.5.5.8.i.M.J.W.U.v.+.M f + ",
"8.8.5.5.5.5.5.5.5.5.5.5.5.5.5.5.5.5.5.5.5.5.5.5.5.5.5.5.5.5.5.5.5.5.5.5.5.5.5.5.5.5.5.5.5.5.5.5.5.5.5.5.5.8.i.M.J.W.U.v.+.M f + ",
"5.5.5.5.5.5.5.5.5.5.5.5.5.5.5.5.5.5.5.5.5.5.5.5.5.5.5.5.5.5.5.5.5.5.5.5.5.5.5.5.5.5.5.5.5.5.5.5.5.5.5.5.5.8.i.M.H.R.L.z.+.M f + ",
"5.5.5.5.5.5.5.5.5.5.5.5.5.5.5.5.5.5.5.5.5.5.5.5.5.5.5.5.5.5.5.5.5.5.5.5.5.5.5.5.5.5.5.5.5.5.5.5.5.5.5.5.5.8.i.M.H.R.L.z.+.M f + ",
"5.5.5.5.5.5.5.5.5.5.5.5.5.5.5.5.5.5.5.5.5.5.5.5.5.5.5.5.5.5.5.5.5.5.5.5.5.5.5.5.5.5.5.5.5.5.5.5.5.5.5.5.5.8.i.M.H.R.L.z.+.M f + ",
"5.5.5.5.5.5.5.5.5.5.5.5.5.5.5.5.5.5.5.5.5.5.5.5.5.5.5.5.5.5.5.5.5.5.5.5.5.5.5.5.5.5.5.5.5.5.5.5.5.5.5.5.5.8.i.M.H.R.L.z.+.M f + ",
"5.5.5.5.5.5.5.5.5.5.5.5.5.5.5.5.5.5.5.5.5.5.5.5.5.5.5.5.5.5.5.5.5.5.5.5.5.5.5.5.5.5.5.5.5.5.5.5.5.5.5.5.5.8.i.M.H.R.L.z.+.M f + ",
"5.5.5.5.5.5.5.5.5.5.5.5.5.5.5.5.5.5.5.5.5.5.5.5.5.5.5.5.5.5.5.5.5.5.5.5.5.5.5.5.5.5.5.5.5.5.5.5.5.5.5.5.5.8.i.M.H.R.L.z.+.M f + ",
"5.5.5.5.5.5.5.5.5.5.5.5.5.5.5.5.5.5.5.5.5.5.5.5.5.5.5.5.5.5.5.5.5.5.5.5.5.5.5.5.5.5.5.5.5.5.5.5.5.5.5.5.5.8.i.M.H.R.L.z.+.M f + ",
"5.5.5.5.5.5.5.5.5.5.5.5.5.5.5.5.5.5.5.5.5.5.5.5.5.5.5.5.5.5.5.5.5.5.5.5.5.5.5.5.5.5.5.5.5.5.5.5.5.5.5.5.5.8.i.M.H.R.L.z.+.M f + ",
"5.5.5.5.5.5.5.5.5.5.5.5.5.5.5.5.5.5.5.5.5.5.5.5.5.5.5.5.5.5.5.5.5.5.5.5.5.5.5.5.5.5.5.5.5.5.5.5.5.5.5.5.5.8.i.M.H.R.L.z.+.M f + ",
"5.5.5.5.5.5.5.5.5.5.5.5.5.5.5.5.5.5.5.5.5.5.5.5.5.5.5.5.5.5.5.5.5.5.5.5.5.5.5.5.5.5.5.5.5.5.5.5.5.5.5.5.5.8.i.M.H.R.L.z.+.M f + ",
"5.5.5.5.5.5.5.5.5.5.5.5.5.5.5.5.5.5.5.5.5.5.5.5.5.5.5.5.5.5.5.5.5.5.5.5.5.5.5.5.5.5.5.5.5.5.5.5.5.5.5.5.5.8.i.M.H.R.L.z.+.M f + ",
"5.5.5.5.5.5.5.5.5.5.5.5.5.5.5.5.5.5.5.5.5.5.5.5.5.5.5.5.5.5.5.5.5.5.5.5.5.5.5.5.5.5.5.5.5.5.5.5.5.5.5.5.5.8.i.M.H.R.L.z.+.M f + ",
"5.5.5.5.5.5.5.5.5.5.5.5.5.5.5.5.5.5.5.5.5.5.5.5.5.5.5.5.5.5.5.5.5.5.5.5.5.5.5.5.5.5.5.5.5.5.5.5.5.5.5.5.5.8.i.M.H.R.L.z.+.M f + ",
"5.5.5.5.5.5.5.5.5.5.5.5.5.5.5.5.5.5.5.5.5.5.5.5.5.5.5.5.5.5.5.5.5.5.5.5.5.5.5.5.5.5.5.5.5.5.5.5.5.5.5.5.5.8.i.M.H.R.L.z.+.M f + ",
"5.5.5.5.5.5.5.5.5.5.5.5.5.5.5.5.5.5.5.5.5.5.5.5.5.5.5.5.5.5.5.5.5.5.5.5.5.5.5.5.5.5.5.5.5.5.5.5.5.5.5.5.5.8.i.M.H.R.L.z.+.M f + ",
"5.5.5.5.5.5.5.5.5.5.5.5.5.5.5.5.5.5.5.5.5.5.5.5.5.5.5.5.5.5.5.5.5.5.5.5.5.5.5.5.5.5.5.5.5.5.5.5.5.5.5.5.5.8.i.M.H.R.L.z.+.M f + ",
"5.5.5.5.5.5.5.5.5.5.5.5.5.5.5.5.5.5.5.5.5.5.5.5.5.5.5.5.5.5.5.5.5.5.5.5.5.5.5.5.5.5.5.5.5.5.5.5.5.5.5.5.5.8.i.M.H.R.L.z.+.M f + ",
"5.5.5.5.5.5.5.5.5.5.5.5.5.5.5.5.5.5.5.5.5.5.5.5.5.5.5.5.5.5.5.5.5.5.5.5.5.5.5.5.5.5.5.5.5.5.5.5.5.5.5.5.5.8.i.M.H.R.L.z.+.M f + ",
"5.5.5.5.5.5.5.5.5.5.5.5.5.5.5.5.5.5.5.5.5.5.5.5.5.5.5.5.5.5.5.5.5.5.5.5.5.5.5.5.5.5.5.5.5.5.5.5.5.5.5.5.5.8.i.M.H.R.L.z.+.M f + ",
"5.5.5.5.5.5.5.5.5.5.5.5.5.5.5.5.5.5.5.5.5.5.5.5.5.5.5.5.5.5.5.5.5.5.5.5.5.5.5.5.5.5.5.5.5.5.5.5.5.5.5.5.5.8.i.M.H.R.L.z.+.M f + ",
"5.5.5.5.5.5.5.5.5.5.5.5.5.5.5.5.5.5.5.5.5.5.5.5.5.5.5.5.5.5.5.5.5.5.5.5.5.5.5.5.5.5.5.5.5.5.5.5.5.5.5.5.5.8.i.M.H.R.L.z.+.M f + ",
"5.5.5.5.5.5.5.5.5.5.5.5.5.5.5.5.5.5.5.5.5.5.5.5.5.5.5.5.5.5.5.5.5.5.5.5.5.5.5.5.5.5.5.5.5.5.5.5.5.5.5.5.5.8.i.M.H.R.L.z.+.M f + ",
"5.5.5.5.5.5.5.5.5.5.5.5.5.5.5.5.5.5.5.5.5.5.5.5.5.5.5.5.5.5.5.5.5.5.5.5.5.5.5.5.5.5.5.5.5.5.5.5.5.5.5.5.5.8.i.M.H.R.L.z.+.M f + ",
"5.5.5.5.5.5.5.5.5.5.5.5.5.5.5.5.5.5.5.5.5.5.5.5.5.5.5.5.5.5.5.5.5.5.5.5.5.5.5.5.5.5.5.5.5.5.5.5.5.5.5.5.5.8.i.M.H.R.L.z.+.M f + ",
"5.5.5.5.5.5.5.5.5.5.5.5.5.5.5.5.5.5.5.5.5.5.5.5.5.5.5.5.5.5.5.5.5.5.5.5.5.5.5.5.5.5.5.5.5.5.5.5.5.5.5.5.5.8.i.M.H.R.L.z.+.M f + ",
"5.5.5.5.5.5.5.5.5.5.5.5.5.5.5.5.5.5.5.5.5.5.5.5.5.5.5.5.5.5.5.5.5.5.5.5.5.5.5.5.5.5.5.5.5.5.5.5.5.5.5.5.5.8.i.M.H.R.L.z.+.M f + ",
"5.5.5.5.5.5.5.5.5.5.5.5.5.5.5.5.5.5.5.5.5.5.5.5.5.5.5.5.5.5.5.5.5.5.5.5.5.5.5.5.5.5.5.5.5.5.5.5.5.5.5.5.5.8.i.M.H.R.L.z.+.M f + ",
"5.5.5.5.5.5.5.5.5.5.5.5.5.5.5.5.5.5.5.5.5.5.5.5.5.5.5.5.5.5.5.5.5.5.5.5.5.5.5.5.5.5.5.5.5.5.5.5.5.5.5.5.5.8.i.M.H.R.L.z.+.M f + ",
"5.5.5.5.5.5.5.5.5.5.5.5.5.5.5.5.5.5.5.5.5.5.5.5.5.5.5.5.5.5.5.5.5.5.5.5.5.5.5.5.5.5.5.5.5.5.5.5.5.5.5.5.5.8.i.M.H.R.L.z.+.M f + ",
"5.5.5.5.5.5.5.5.5.5.5.5.5.5.5.5.5.5.5.5.5.5.5.5.5.5.5.5.5.5.5.5.5.5.5.5.5.5.5.5.5.5.5.5.5.5.5.5.5.5.5.5.5.8.i.M.H.R.L.z.+.M f + ",
"5.5.5.5.5.5.5.5.5.5.5.5.5.5.5.5.5.5.5.5.5.5.5.5.5.5.5.5.5.5.5.5.5.5.5.5.5.5.5.5.5.5.5.5.5.5.5.5.5.5.5.5.5.8.i.M.H.R.L.z.+.M f + ",
"5.5.5.5.5.5.5.5.5.5.5.5.5.5.5.5.5.5.5.5.5.5.5.5.5.5.5.5.5.5.5.5.5.5.5.5.5.5.5.5.5.5.5.5.5.5.5.5.5.5.5.5.5.8.i.M.H.R.L.z.+.M f + ",
"5.5.5.5.5.5.5.5.5.5.5.5.5.5.5.5.5.5.5.5.5.5.5.5.5.5.5.5.5.5.5.5.5.5.5.5.5.5.5.5.5.5.5.5.5.5.5.5.5.5.5.5.5.8.i.M.H.R.L.z.+.M f + ",
"5.5.5.5.5.5.5.5.5.5.5.5.5.5.5.5.5.5.5.5.5.5.5.5.5.5.5.5.5.5.5.5.5.5.5.5.5.5.5.5.5.5.5.5.5.5.5.5.5.5.5.5.5.8.i.M.H.R.L.z.+.M f + ",
"5.5.5.5.5.5.5.5.5.5.5.5.5.5.5.5.5.5.5.5.5.5.5.5.5.5.5.5.5.5.5.5.5.5.5.5.5.5.5.5.5.5.5.5.5.5.5.5.5.5.5.5.5.8.i.M.H.R.L.z.+.M f + ",
"5.5.5.5.5.5.5.5.5.5.5.5.5.5.5.5.5.5.5.5.5.5.5.5.5.5.5.5.5.5.5.5.5.5.5.5.5.5.5.5.5.5.5.5.5.5.5.5.5.5.5.5.5.8.i.M.H.R.L.z.+.M f + ",
"5.5.5.5.5.5.5.5.5.5.5.5.5.5.5.5.5.5.5.5.5.5.5.5.5.5.5.5.5.5.5.5.5.5.5.5.5.5.5.5.5.5.5.5.5.5.5.5.5.5.5.5.5.8.i.M.H.R.L.z.+.M f + ",
"5.5.5.5.5.5.5.5.5.5.5.5.5.5.5.5.5.5.5.5.5.5.5.5.5.5.5.5.5.5.5.5.5.5.5.5.5.5.5.5.5.5.5.5.5.5.5.5.5.5.5.5.5.8.i.M.H.R.L.z.+.M f + ",
"5.5.5.5.5.5.5.5.5.5.5.5.5.5.5.5.5.5.5.5.5.5.5.5.5.5.5.5.5.5.5.5.5.5.5.5.5.5.5.5.5.5.5.5.5.5.5.5.5.5.5.4.4.5.i.m.H.R.L.z.+.M f + ",
"5.5.5.5.5.5.5.5.5.5.5.5.5.5.5.5.5.5.5.5.5.5.5.5.5.5.5.5.5.5.5.5.5.5.5.5.5.5.5.5.5.5.5.5.5.5.5.5.5.5.5.4.4.5.i.m.H.R.L.z.+.M f + ",
"5.5.5.5.5.5.5.5.5.5.5.5.5.5.5.5.5.5.5.5.5.5.5.5.5.5.5.5.5.5.5.5.5.5.5.5.5.5.5.5.5.5.5.5.5.5.5.5.5.5.5.5.5.q.p.M.H.R.L.z.+.M f + ",
"5.5.5.5.5.5.5.5.5.5.5.5.5.5.5.5.5.5.5.5.5.5.5.5.5.5.5.5.5.5.5.5.5.5.5.5.5.5.5.5.5.5.5.5.5.5.5.5.5.5.5.q.w.i.f.Z.Y.W.L.z.+.M f + ",
"5.5.5.5.5.5.5.5.5.5.5.5.5.5.5.5.5.5.5.5.5.5.5.5.5.5.5.5.5.5.5.5.5.5.5.5.5.5.5.5.5.5.5.5.5.5.5.4.4.5.q.r.a.c.B.H.Q.!.U.z.+.M f + ",
"5.5.5.5.5.5.5.5.5.5.5.5.5.5.5.5.5.5.5.5.5.5.5.5.5.5.5.5.5.5.5.5.5.5.5.5.5.5.5.5.5.5.5.5.5.5.5.4.4.5.w.a.n.S.P.Q.^.~.U.z.+.M f + ",
"4.4.4.5.5.8.8.8.8.8.8.8.8.8.8.8.8.8.8.8.8.8.8.8.8.8.8.8.8.8.8.8.8.8.8.8.8.8.8.8.8.8.8.8.8.8.8.5.5.q.i.c.S.Y.Q.^.^.!.K.l.X.m f + ",
"&.&.;.1.0.e.i.i.i.i.i.i.i.i.i.i.i.i.i.i.i.i.i.i.i.i.i.i.i.i.i.i.i.i.i.i.i.i.i.i.i.i.i.i.i.i.i.i.i.p.f.B.P.Q.~.~.Q.P.V.7. .c < + ",
"U Y @.<.e.f.n.M.M.M.M.M.M.M.M.M.M.M.M.M.M.M.M.M.M.M.M.M.M.M.M.M.M.M.M.M.M.M.M.M.M.M.M.M.M.M.M.m.m.M.Z.P.W.~.~.E.D.c.t.o.^ x < - ",
"A G I &.i.N.G.P.P.H.H.H.H.H.H.H.H.H.H.H.H.H.H.H.H.H.H.H.H.H.H.H.H.H.H.H.H.H.H.H.H.H.H.H.H.H.H.H.H.P.Y.Q.~.^.Q.D.s.<.] ! d 7 , - ",
"e N G #.i.Z.Y.W.W.W.R.R.R.R.R.R.R.R.R.R.R.R.R.R.R.R.R.R.R.R.R.R.R.R.R.R.R.R.R.R.R.R.R.R.R.R.R.R.R.W.W.!.~.!.P.c.<.P S i 4 5 , ; ",
"8 0 S ` 6.m.F.P.P.H.H.H.H.H.H.H.H.H.H.H.H.H.H.H.H.H.H.H.H.H.H.H.H.H.H.H.H.H.H.H.H.H.H.H.H.H.H.H.H.H.H.I.I.G.m.9.[ D w % & : ; ; ",
"# $ p K $.9.p.d.d.s.s.s.s.s.s.s.s.s.s.s.s.s.s.s.s.s.s.s.s.s.s.s.s.s.s.s.s.s.s.s.s.s.s.s.s.s.s.s.s.s.s.s.s.p.6.$.H p % @ * = ; ; ",
"@ 2 t F L ` @.#.#.#.#.#.#.#.#.#.#.#.#.#.#.#.#.#.#.#.#.#.#.#.#.#.#.#.#.#.#.#.#.#.#.#.#.#.#.#.#.#.#.#.#.#.#.{ _ J s r 1 * = = ; ; ",
": > 3 u a B V Z Z C C C C C C C C C C C C C C C C C C C C C C C C C C C C C C C C C C C C C C C C C C Z Z V B a y 3 > = ; ; ; ; ",
"; : > 2 q 9 o o o o o o o o o o o o o o o o o o o o o o o o o o o o o o o o o o o o o o o o o o o o o o o o 9 q 2 > , ; ; ; ; ; ",
"; ; : 1 #   X . . . . . . . . . . . . . . . . . . . . . . . . . . . . . . . . . . . . . . . . . . . . . . X   # 1 : ; ; ; ; ; ; "
};
