/* XPM */
static char *result[] = {
/* columns rows colors chars-per-pixel */
"64 64 50 1 ",
"  c #000100",
". c #020C03",
"X c #041306",
"o c #061909",
"O c #081D0B",
"+ c #09200C",
"@ c #0D2711",
"# c #0F2A12",
"$ c #102D14",
"% c #133116",
"& c #143418",
"* c #16391A",
"= c #193D1D",
"- c #1A401F",
"; c #1C4422",
": c #1F4824",
"> c #204B26",
", c #224F28",
"< c #24542A",
"1 c #27582D",
"2 c #285B2F",
"3 c #2A5E31",
"4 c #2C6333",
"5 c #2F6937",
"6 c #306937",
"7 c #316D39",
"8 c #36753E",
"9 c #37783F",
"0 c #377940",
"q c #397C41",
"w c #3C8446",
"e c #3D8847",
"r c #3E8648",
"t c #3E8948",
"y c #41864A",
"u c #428D4C",
"i c #44914F",
"p c #469250",
"a c #499553",
"s c #4C9956",
"d c #4F9D59",
"f c #519E5B",
"g c #53A35D",
"h c #56A761",
"j c #57A962",
"k c #5AAB64",
"l c #5DB067",
"z c #5EB269",
"x c #60B46B",
"c c None",
/* pixels */
"cccccccccccccccccccccccccccccccccccccccccccccccccccccccccccccccc",
"cccccccccccccccccccccccccccccccccccccccccccccccccccccccccccccccc",
"cccccccccccccccccccccccccccccccccccccccccccccccccccccccccccccccc",
"cccccccccccccccccccccccccccccccccccccccccccccccccccccccccccccccc",
"cccccccccccccccccccccccccccccccccccccccccccccccccccccccccccccccc",
"cccccccccccccccccccccccccccccccccccccccccccccccccccccccccccccccc",
"cccccccccccccccccccccccccccccccccccccccccccccccccccccccccccccccc",
"cccccccccccccccccccccccccccccccccccccccccccccccccccccccccccccccc",
"cccccccccccccccccccccccccccccccccccccccccccccccccccccccccccccccc",
"cccccccccccccccccccccccccccccccccccccccccccccccccccccccccccccccc",
"cccccccccccccccccccccccccccccccccccccccccccccccccccccccccccccccc",
"cccccccccccccccccccccccccccccccccccccccccccccccccccccccccccccccc",
"ccccccccccccccccccccc                      ccccccccccccccccccccc",
"ccccccccccccccccccccXXXXXooooooooooooooXXXXXcccccccccccccccccccc",
"cccccccccccccccccccc#$%%&***-**-*******&%%##cccccccccccccccccccc",
"ccccccccccccccccccc&*;::,<<<<<<<<<<1<<<,,;;=%ccccccccccccccccccc",
"ccccccccccccc     @=:<34457457457575555443<:=@     ccccccccccccc",
"ccccccccccccXXX..O$;<45889wwqwwww9wwww09864<;%O..XXXcccccccccccc",
"cccccccccccc#$$##%;<4689wweteeeeweeeewww0864<=%#####cccccccccccc",
"ccccccccccc&=-;;;;,2580weetteetteettteewwq851<::;;;=&ccccccccccc",
"ccccccccc.#=:<<<<24589wwetttttttttttttteww9854<<1<<:=#.ccccccccc",
"cccccccc +%;<45555589wwwtttettttttttttttwww98655654<;%O cccccccc",
"cccccccc@%-,45788880wweetttttttttttttetteeww08888853<=%#cccccccc",
"ccccccc%*;,4589909qqweettttttttettttttteeewwwq9000852<;*%ccccccc",
"ccccc.@*><3689wwwwwweeettttttttttttttttttttewwwwww0854<:=@.ccccc",
"cccc O%;<4789wweeeewttttttttettttttttettttteeweewww9854<;%O cccc",
"cccc#%=<458qwwttittppiptttttttetettetttetetteeetewww9954,-%@cccc",
"ccc%*;<2580wweiiasdgdddsatttttttttttetttttttettteeeww9853,;=%ccc",
" X#=><4589wwwetadgkkjjgdstttttttetttttttttttttttettewwq854<:=#. ",
" .#;<4589wwettisgkzzlkjgsptttttetttttttettttttttetteeww9874<;$X ",
" X$:3680wwttiisgklzxzlkgspttettttttetetttttttttttttteewwq852:%X ",
" X%>47qwweuiasgjlzxzlkhdsttttttttttttttttttttttttttteewwwq84:$X ",
" X&,49qeyyuafhklxxxljgsaiuteeeywteeeetteyeyeeuettttteteeww95,&X ",
" o&<7qweeypsfkkxxxljgaputtteeyywtteeeettwyeeeeeeeeeteettewq5<*o ",
" o&<7qeeeypafkklllkfsuyyeewwyyyyewewweeeyyyyqwqqqwwwwetteeq7<*o ",
" o-17qeetuuadhhhhgfsiywwwwwwwwyywwwwwwwwwwq997777779wettteq71*o ",
" o*17weettuiddfdsspyywqqqwqwqyqqqqqqqqqqy9876221<137qweteew7<*o ",
" X*<7qeetttuyyypyyyyqqqq9998888qq0q0q0qqq986<>=&%->38qeete971&X ",
" o*17qeeeeeeyyyyyq99998887777878007000qq9973>&@  +-15qeete97<*o ",
" o&<7qyewwwwyqyq8888888764433346600000009873>#    %,59wwtew71*X ",
" X*<8wwwy99qqyqq888898863<>::><2670099999801:#    $,48qreew71&o ",
" X*<59wwy99q999999999874<;&$$%;<300099999863>&O  o&,48qwwwq7<*o ",
" X*<59wwy899899888q99873>&+  O&>3670898q9874<;&$$&;<470qww95<*X ",
" X&<48w9qq899989q8899873>%    %>3600qq8898863<>:>><3489qwq84,&X ",
" X%,48999899988999999873:$  ..$:3770888q988766433446788q9884:%X ",
" X$:25898899999989999874>%O  X&,3000888q98887777677888888852:%X ",
" X#-14478889888899998884<;%$%&;,360088q89008888888888888754<;#. ",
" X#-:12468888898889888863<,:>,,36000q888888000088088887743<>=#X ",
"ccc&=;,24788888889889887644333667808999880800800888808643>>*%ccc",
"cccc@%=,3677777888998988877686688908999q0808808878877663>;$#cccc",
"cccc.O%;<44646677889989989988888808q9888808008876666663<;$O.cccc",
"ccccc #=><2122346889999990008qq8008899qq90008886631111<>=#.ccccc",
"ccccccc&=-;;;;,2668899999q9999qq000088q8999908641,>;;;;=&ccccccc",
"cccccccc$$$$$&=,36788898888888888888898888888763,=&$#$$$cccccccc",
"ccccccccX.X..O%;<366667777778686776777777766644<>$o..X.Xcccccccc",
"ccccccccc     @=><2233334333332333333333433331<>*@     ccccccccc",
"ccccccccccccccc&=;;;>>>>>>>,>>>>>>>>>>>>>>>>>;;=&ccccccccccccccc",
"cccccccccccccccc$%%%%$&&%%%&%%%&%%%&%%%%$&$&$$$$cccccccccccccccc",
"ccccccccccccccccXXXX.XXXXXXXXXoXXOXOXo.XXXXX.XXXcccccccccccccccc",
"ccccccccccccccccc                              ccccccccccccccccc",
"cccccccccccccccccccccccccccccccccccccccccccccccccccccccccccccccc",
"cccccccccccccccccccccccccccccccccccccccccccccccccccccccccccccccc",
"cccccccccccccccccccccccccccccccccccccccccccccccccccccccccccccccc",
"cccccccccccccccccccccccccccccccccccccccccccccccccccccccccccccccc"
};
