/* XPM */
static char *result[] = {
/* columns rows colors chars-per-pixel */
"64 64 156 2 ",
"   c black",
".  c #19191A",
"X  c #34100D",
"o  c #2F1917",
"O  c #341B19",
"+  c #391E1C",
"@  c #2D2D2D",
"#  c #222222",
"$  c #3C2D2C",
"%  c #3F3F3F",
"&  c #4A1F19",
"*  c #49241E",
"=  c #452421",
"-  c #4B2622",
";  c #4C2925",
":  c #542621",
">  c #532A25",
",  c #5A2C26",
"<  c #532D29",
"1  c #5A2E2A",
"2  c #5A2721",
"3  c #55312D",
"4  c #5D322D",
"5  c #403030",
"6  c #5B393D",
"7  c #602F29",
"8  c #61332E",
"9  c #623530",
"0  c #683731",
"q  c #6C3A35",
"w  c #703D37",
"e  c #733F39",
"r  c #5E413F",
"t  c #7B433D",
"y  c #3F3F40",
"u  c #533E48",
"i  c #494646",
"p  c #4C4C4C",
"a  c #574049",
"s  c #4F4F50",
"d  c #514552",
"f  c #5D4854",
"g  c #544B5A",
"h  c #5E4E5D",
"j  c #4F5050",
"k  c #5D5D5D",
"l  c #595555",
"z  c #674542",
"x  c #684642",
"c  c #66464E",
"v  c #734B47",
"b  c #604B57",
"n  c #6C4F55",
"m  c #6B4F5A",
"M  c #6B5352",
"N  c #765957",
"B  c #735C5B",
"V  c #7A5E5C",
"C  c #7D615E",
"Z  c #434F65",
"A  c #47536A",
"S  c #4F5A6F",
"D  c #5C5365",
"F  c #53556A",
"G  c #59566B",
"H  c #5F5F60",
"J  c #4E5B73",
"K  c #525D76",
"L  c #515E78",
"P  c #6E5460",
"I  c #785763",
"U  c #735B66",
"Y  c #5A667D",
"T  c #6B6B6B",
"R  c gray39",
"E  c #736166",
"W  c #7C6664",
"Q  c #74656F",
"!  c #7A646C",
"~  c #616B7F",
"^  c #6C6A7A",
"/  c #67667A",
"(  c #797979",
")  c gray45",
"_  c #84463F",
"`  c #844841",
"'  c #8D4D45",
"]  c #904E47",
"[  c #9A544C",
"{  c #885E67",
"}  c #826967",
"|  c #826A69",
" . c #90626A",
".. c #837D7C",
"X. c #5F6780",
"o. c #5F6B80",
"O. c #5D6C88",
"+. c #656781",
"@. c #636C83",
"#. c #667084",
"$. c #6A7487",
"%. c #67708C",
"&. c #6C728C",
"*. c #7B768F",
"=. c #76768B",
"-. c #657492",
";. c #6F7F9F",
":. c #707690",
">. c #757E97",
",. c #7C7F97",
"<. c #6F7FA0",
"1. c #807E87",
"2. c #74819C",
"3. c #7A869F",
"4. c #6F80A0",
"5. c #7080A0",
"6. c #7B87A0",
"7. c #7D8AA3",
"8. c #848383",
"9. c #8D8686",
"0. c #89878D",
"q. c #8D8D8D",
"w. c #938887",
"e. c #948988",
"r. c #8B8C9D",
"t. c #8A8D95",
"y. c #969696",
"u. c #999392",
"i. c #94959A",
"p. c #979898",
"a. c #9D9C9C",
"s. c #A09A99",
"d. c #9FA09F",
"f. c #838EA4",
"g. c #818FAA",
"h. c #8390AA",
"j. c #8895AF",
"k. c #8E98AD",
"l. c #8F92A5",
"z. c #9094A5",
"x. c #8996B0",
"c. c #939EB3",
"v. c #9AA5BB",
"b. c #9FA9BF",
"n. c #A2A2A2",
"m. c #ADADAD",
"M. c #A0AABF",
"N. c #B7B7B7",
"B. c #C3C3C3",
"V. c #CACACA",
"C. c #CFD0D0",
"Z. c #D2D2D2",
"A. c #DDDDDD",
"S. c #E1E1E1",
"D. c #EEEEEE",
"F. c None",
/* pixels */
"F.F.F.F.F.F.F.F.F.F.F.F.F.F.F.F.F.F.F.F.F.F.F.F.F.F.F.F.F.F.F.F.F.F.F.F.F.F.F.F.F.F.F.F.F.F.F.F.F.F.F.F.F.F.F.F.F.F.F.F.F.F.F.F.",
"F.F.F.F.F.F.F.F.F.F.F.F.F.F.F.F.F.F.F.F.F.F.F.F.F.F.F.F.F.F.F.F.F.F.F.F.F.F.F.F.F.F.F.F.F.F.F.F.F.F.F.F.F.F.F.F.F.F.F.F.F.F.F.F.",
"F.F.F.F.F.F.F.F.F.F.F.F.F.F.F.F.F.F.F.F.F.F.F.F.F.F.F.F.F.F.F.F.F.F.F.F.F.F.F.F.F.F.F.F.F.F.F.F.F.F.F.F.F.F.F.F.F.F.F.F.F.F.F.F.",
"F.F.F.F.F.F.F.F.F.F.F.F.F.F.F.F.F.F.F.F.F.F.F.F.F.F.F.F.F.F.F.F.F.F.F.F.F.F.F.F.F.F.F.F.F.F.F.F.F.F.F.F.F.F.F.F.F.F.F.F.F.F.F.F.",
"F.F.F.F.F.F.F.F.F.F.F.F.F.F.F.F.F.F.F.F.F.F.F.F.F.F.F.F.F.F.F.F.F.F.F.F.F.F.F.F.F.F.F.F.F.F.F.F.F.F.F.F.F.F.F.F.F.F.F.F.F.F.F.F.",
"F.F.F.F.F.F.F.F.F.F.F.F.F.F.F.F.F.F.F.F.F.F.F.F.F.F.F.F.F.F.F.F.F.F.F.F.F.F.F.F.F.F.F.F.F.F.F.F.F.F.F.F.F.F.F.F.F.F.F.F.F.F.F.F.",
"F.F.F.F.F.F.F.F.F.F.F.F.F.F.F.F.F.F.F.F.F.F.F.F.F.F.F.F.F.F.F.F.F.F.F.F.F.F.F.F.F.F.F.F.F.F.F.F.F.F.F.F.F.F.F.F.F.F.F.F.F.F.F.F.",
"F.F.F.F.F.F.F.F.F.F.F.F.F.F.F.F.F.F.F.F.F.F.F.F.F.F.F.F.F.F.F.F.F.F.F.F.F.F.F.F.F.F.F.F.F.F.F.F.F.F.F.F.F.F.F.F.F.F.F.F.F.F.F.F.",
"F.F.F.F.F.F.F.F.F.F.F.F.F.F.F.F.F.F.F.F.F.F.F.F.F.F.x.x.g.x.x.x.j.j.j.x.j.j.F.F.F.F.F.F.F.F.F.F.F.F.F.F.F.F.F.F.F.F.F.F.F.F.F.F.",
"F.F.F.F.F.F.F.F.F.F.F.F.F.F.F.F.F.F.F.F.F.F.F.F.F.F.x.x.x.x.x.g.x.j.j.j.j.x.F.F.F.F.F.F.F.F.F.F.F.F.F.F.F.F.F.F.F.F.F.F.F.F.F.F.",
"F.F.F.F.F.F.F.F.F.F.F.F.F.F.F.F.F.F.F.F.F.F.F.F.F.F.x.x.x.x.x.x.j.j.x.j.j.j.F.F.F.F.F.F.F.F.F.F.F.F.F.F.F.F.F.F.F.F.F.F.F.F.F.F.",
"F.F.F.F.F.F.F.F.F.F.F.F.F.F.F.F.F.F.F.F.F.F.F.F.F.F.g.x.g.x.x.x.j.x.j.j.j.h.F.F.F.F.F.F.F.F.F.F.F.F.F.F.F.F.F.F.F.F.F.F.F.F.F.F.",
"F.F.F.F.F.F.F.F.F.F.F.F.F.F.j.j.x.j.j.j.j.j.j.3.X.O.7.j.x.x.x.x.x.j.x.g.x.7.O.Y 6.j.x.j.j.x.j.j.x.x.F.F.F.F.F.F.F.F.F.F.F.F.F.F.",
"F.F.F.F.F.F.F.F.F.F.F.F.F.F.x.j.j.j.x.j.j.j.j.3.X.X.7.c.c.c.c.c.c.c.c.c.c.7.o.Y 3.j.x.j.j.j.j.x.j.j.F.F.F.F.F.F.F.F.F.F.F.F.F.F.",
"F.F.F.F.F.F.F.F.F.F.F.F.F.F.j.j.x.j.x.j.j.x.j.3.Y #.k.b.b.b.b.b.b.b.b.b.b.j.#.Y 3.x.x.x.j.j.x.j.j.j.F.F.F.F.F.F.F.F.F.F.F.F.F.F.",
"F.F.F.F.F.F.F.F.F.F.F.F.F.F.h.j.j.j.j.j.x.j.j.3.Y #.j.v.v.v.v.v.v.v.v.v.b.x.@.X.3.j.j.j.x.j.j.j.j.h.F.F.F.F.F.F.F.F.F.F.F.F.F.F.",
"Z Y 6.x.x.j.j.x.j.x.j.3.Y o.3.j.j.j.x.j.j.j.j.6.X.Y 2.7.7.g.7.h.g.g.7.7.7.2.Y X.5.x.x.x.x.x.x.x.x.7.o.X.3.j.j.j.j.j.x.x.j.6.O.Z ",
"Z Y 6.j.x.j.j.j.x.x.j.6.X.X.3.v.c.v.c.c.c.c.c.7.X.L -.4.4.4.<.<.4.4.4.;.4.-.L o.7.c.c.c.c.c.c.c.c.f.X.X.6.j.j.j.j.j.j.x.j.6.Y Z ",
"Z X.6.j.x.j.j.x.j.x.x.6.Y #.k.b.v.b.b.b.M.M.b.x.#.L -.;.4.4.<.<.4.<.;.;.<.-.J #.c.b.b.b.b.b.b.M.b.k.O.Y 3.j.j.j.j.j.j.x.j.6.Y Z ",
"Z Y 6.x.j.x.j.j.j.j.x.6.Y O.j.v.v.v.v.v.v.v.v.j.@.J -.;.4.4.<.<.<.<.;.<.<.-.L @.j.v.v.v.v.v.v.v.v.j.#.Y 3.j.j.j.j.j.j.j.j.6.Y Z ",
"Z X.6.x.x.j.j.j.x.x.j.6.Y Y >.g.g.g.g.7.h.7.h.2.Y J -.;.;.;.;.;.<.<.<.<.;.-.L Y 2.7.g.g.7.g.g.g.7.2.Y Y 3.j.j.j.j.j.j.j.j.6.O.Z ",
"Z o.7.c.c.c.c.c.c.c.c.7.X.L -.;.<.<.4.;.4.4.4.-.Y L -.<.4.4.4.4.4.4.4.5.<.-.L L -.<.<.4.;.;.<.<.4.-.L o.7.c.c.v.c.c.c.v.c.7.Y Z ",
"Z #.x.b.b.b.b.b.b.M.b.k.#.L -.;.<.<.<.<.<.4.4.-.K K -.;.4.;.<.;.;.;.<.<.<.-.L K -.<.<.<.;.;.;.<.4.%.L #.k.b.b.b.v.b.b.b.v.k.#.Z ",
"Z O.j.v.v.v.v.v.v.v.v.j.@.L -.;.4.<.4.4.4.4.4.-.K F Y %.%.&.&.%.%.&.&.&.%.+.F K -.4.4.4.4.4.4.4.4.-.L #.j.v.v.v.v.v.v.v.v.j.#.Z ",
"Z Y ;.7.7.h.7.g.g.g.g.5.Y K -.;.<.<.;.;.4.4.4.-.D u d g h h h h h h h h g d u D %.;.<.<.;.;.<.<.;.-.K Y 2.g.h.7.7.7.7.g.g.5.X.A ",
"Z Y -.;.;.;.4.4.4.4.<.-.K F ~ %.&.&.%.%.%.%.&./ f < = - < 3 4 1 3 4 4 < = = < f ~ %.&.%.%.%.&.%.&.+.F K -.4.4.;.4.4.<.<.4.-.L Z ",
"Z Y -.;.;.;.;.;.<.<.<.&.D a f h h h g g h h h f 6 < * * > 1 1 1 1 1 1 > * - > 6 f P h h g g h h h f u D -.;.;.;.4.4.4.4.<.-.J Z ",
"Z J -.;.4.;.;.4.<.<.<.&.h 3 1 1 3 < = - 4 4 4 4 4 4 ; ; 4 4 4 4 4 4 4 4 ; ; 4 4 4 4 4 4 - = < 4 1 1 1 h &.;.4.;.4.4.4.4.4.-.L Z ",
"Z J -.4.;.;.4.4.;.<.4.&.h 1 , 1 1 > = ; 8 0 0 q q 9 4 4 9 q q q q 0 0 9 4 4 q q q 9 0 4 ; - > 1 1 1 1 h &.4.4.<.;.;.;.;.<.-.L Z ",
"Z J O.%.-.-.-.-.-.-.-.+.f 4 4 4 4 1 - 1 0 q q w q q 9 9 q q q q q w q q 9 4 q q q w w 9 1 ; 3 4 4 4 4 f +.-.-.-.-.-.-.-.-.O.J Z ",
"Z A J Y J L L L L L L G c q 0 q q 9 4 4 0 q q q q q 4 9 q q q q q q w q 9 4 9 q q q q q 4 4 9 q q 0 q c G J L L L L L L K J A Z ",
"Z J Y $.$.$.$.$.$.$.$.^ E N N B W V z 8 q q w q w q 4 4 4 4 4 4 1 1 , 2 * > 0 q w q q q 4 4 q q q q q n ^ $.$.$.$.$.$.$.$.~ J Z ",
"Z o.f.c.c.c.c.c.c.c.c.z.0.....9.u.w.B 9 0 q q w q q 4 3 = + + + + + + O O = 9 q q q q q 9 4 q q q 0 q ! r.c.c.c.c.c.c.c.c.f.~ Z ",
"Z #.l.v.v.v.v.v.v.v.v.c.i.e.y.a.n.a.! 9 9 w q q w 0 3 ; @ y l k H ) 8.q.q...M 8 0 w w q 9 9 q q q q q ! z.v.v.v.v.v.v.v.v.z.#.Z ",
"Z Y 2.h.f.h.g.g.f.h.g.f.t.i.s.m.m.a.W 4 0 w q w q 4 = $ i T q.y.i.m.Z.S.S.B...; 1 q q q 9 9 q q q q w U ,.g.g.g.f.g.h.g.h.2.Y Z ",
"Z L -.;.;.;.;.;.4.2.2.2.=.9.u.s.s.e.B 9 0 q q q 9 3 $ p T ..q.y.p.m.C.S.S.Z.n...M 9 0 q 9 9 q q w q q P &.<.<.;.;.;.;.;.;.-.K Z ",
"Z J -.4.;.;.;.;.;.;.;.&.! V } } | C r 9 q q q 9 ; $ i T q.q.) H H T 8.u.z.N.C.B...; 7 0 9 9 q q q q w m :.4.;.;.;.;.;.;.;.-.K Z ",
"Z L -.4.;.;.;.;.;.4.5.&.P q 0 q q q 9 9 q w q 4 + @ s ( a.p.H         # l d.S.A.q.X 2 q 9 9 q q q q q P &.2.<.;.;.;.;.;.;.-.L Z ",
"Z J -.4.;.;.<.<.2.5.4.&.P q q 0 0 0 8 9 0 q q 4 + @ j ( d.p.H         . p s.S.S.q.+ , q 9 4 0 q w 0 q P &.<.<.;.;.;.;.;.;.-.L Z ",
"Z Y -.4.4.;.;.<.<.5.5.&.P q q q q q 9 9 q q 0 3 $ p T 0.n.a.( H k H k R ) d.A.A.m...M 4 1 9 0 v V { v m :.<.<.;.;.;.;.;.;.-.Y Z ",
"Z L -.5.5.;.;.;.<.<.;.&.P w q w q q 9 9 r 8 ; 5 i T q.d.m.m.d.p.y.p.p.p.a.m.N.C.A.B...= : 8 0 W e.e.W m %.;.;.;.;.;.<.<.;.-.L Z ",
"Z J O.-.-.-.-.-.-.-.-.+.m q q w q q 9 4 q 8 + @ j ( a.m.m.m.m.m.m.m.m.m.m.m.m.V.D.A.q.o & 8 q | s.s.| m / -.-.-.-.-.-.-.-.O.J Z ",
"Z A J L L L L L K L L G c q q q q 0 4 9 0 4 + @ j ( a.m.m.m.m.m.m.m.m.m.m.m.m.V.D.A.q.o & 1 q | s.s.} c G L Y J J L L L Y J A Z ",
"Z S Y $.$.$.$.$.$.$.&.^ n w w q t 9 9 9 0 8 + @ j ( a.m.m.m.m.n.s.p.p.d.n.m.m.V.D.S.q.o & 4 q | s.s.} n ^ %.$.$.$.$.$.$.#.Y S Z ",
"Z ~ f.c.c.c.c.c.c.c.c.f.W q 0 w q q 9 4 q 8 + @ j ( a.m.m.m.m.d.( H k ( a.m.m.V.D.S.q.o * 1 0 | s.s.} ! r.c.c.c.c.c.k.v.c.r.Y Z ",
"Z @.j.v.v.v.v.v.v.v.v.l.! w q q r q 9 9 0 4 + @ j ( d.m.m.m.m.p.H     k y.m.m.B.A.C.8.o * 8 q | s.s.} ! l.v.v.v.v.v.v.v.v.j.#.Z ",
"Z Y 2.g.g.g.f.h.7.j.j.1.U q 0 w w q 9 9 q 8 + @ j ( d.m.m.m.m.p.k     k y.m.m.N.B.m.T o : 8 0 | s.s.| U ,.h.h.h.f.7.h.h.7.4.Y Z ",
"Z K -.<.2.;.4.4.<.<.<.&.m w w q q q 9 4 q 8 + @ j ( d.m.m.m.m.p.k     k y.m.m.m.m.y.k o * 7 q | s.s.| m &.4.4.4.4.4.4.4.4.%.Y Z ",
"Z K -.4.;.;.;.;.;.;.<.&.P q q w q q 4 9 q 4 + @ j ( d.m.m.m.m.p.H     k d.m.m.m.m.y.k o ; 1 q | s.s.| P &.;.;.;.;.;.;.;.;.-.K Z ",
"Z K -.4.;.;.;.;.;.;.5.&.P w q q q q 4 9 q 4 + @ j ( a.m.m.m.m.d.( k k ( d.m.m.m.m.i.k o - 4 q I e.e.W P &.<.<.;.;.;.;.;.;.-.K Z ",
"Z J -.4.;.;.;.;.;.<.;.&.m q w q w q 9 9 q 4 + @ j ( a.m.m.m.m.m.a.y.a.d.n.m.m.m.m.y.k o : 9 q v C C v m &.5.<.;.;.;.;.;.5.-.K Z ",
"Z Y -.;.4.;.4.;.;.<.;.&.P w q q q q 9 4 q 4 + @ j ( d.m.m.m.m.m.m.m.m.m.m.m.m.m.m.p.k o - 9 q q q q w P &.;.5.;.;.;.;.<.5.-.K Z ",
"Z J -.4.4.;.;.;.;.<.5.&.P w q q q q 4 9 q 9 + @ j ( a.m.m.m.m.m.m.m.m.m.m.m.m.m.m.y.k o - 9 q q q 0 w m &.<.5.5.;.;.;.;.5.-.L Z ",
"Z J O.-.-.-.-.-.-.-.-./ m w 0 q q 0 9 9 q 9 ; $ i R 0.y.p.p.p.p.p.y.y.a.p.p.p.p.y.9.l = < 9 q q w w q n +.-.-.-.-.-.-.-.-.O.J Z ",
"Z A J K K L L L L L Y G c q q w q q 9 4 0 q 9 3 $ % s k m k k k k H H k H H k H m l r 8 4 9 q q q q w c G K K K L L L L L J A Z ",
"Z J ~ $.$.$.$.$.$.$.$.^ I N N V W C x 4 q q q 8 ; $ o o + + + + + + + O o o O + + - 9 q 9 4 q q w q q n ^ $.&.$.$.$.$.$.$.~ K Z ",
"Z X.l.c.c.c.c.c.c.c.c.z.9.....9.u.w.N 9 0 q q q 9 1 > > 1 4 4 4 4 4 4 , > > , 4 , 8 q 0 9 9 q q q q w ! r.c.c.c.c.c.c.c.c.f.~ Z ",
"Z @.l.v.v.v.v.v.v.v.v.c.i.q.y.d.m.p.W 8 0 q q q q q 4 9 9 w q q q q q q 8 9 0 q w q q q 9 8 q q q q q ! z.v.v.v.v.v.v.v.v.l.#.Z ",
"Z Y 2.g.f.g.g.g.g.h.g.f.t.u.d.m.m.p.W 9 0 q q q w q 9 9 q q w q q w q q 9 9 q q w q w 0 9 9 q q w q q U 1.g.g.g.f.g.g.g.h.2.Y Z ",
"Z L -.;.;.;.;.;.;.;.;.>.=.9.u.a.a.w.B 8 0 q q t q 0 8 9 q q q q q q q 0 9 4 q q q w w 0 8 9 0 q q q q P :.5.<.;.<.;.;.;.4.-.K Z ",
"Z J -.4.;.;.;.;.;.;.;.:.Q V W } } { r 8 q w q q q q 8 9 0 q q q q q q 0 9 9 q q q q q q 9 9 q w q w w P &.<.;.;.;.;.;.4.;.-.K Z ",
"Z L -.4.;.;.;.;.;.;.;.&.V t t t e w 0 0 w v t t v w 0 9 t t t t t t t t 0 9 t t t t v e 9 0 e e t e e I &.;.<.;.;.;.;.;.;.-.L Z ",
"Z L -.4.<.<.;.;.;.;.;.=.{ ] ' ] ] _ q q _ ] ] ] ] ` q q ` ] ] ] ] ] ] _ q q v ] ] ] ] ` q w _ ] ] ] [ { *.;.<.;.;.;.;.;.4.-.L Z ",
"Z L -.4.<.<.;.;.;.;.>.*. .[ [ [ [ ] w w ] [ [ [ [ ' w e ] [ [ [ [ [ [ ' w w ] [ [ [ [ ' w w ] [ [ [ [  .*.;.<.;.;.;.;.;.4.-.L Z "
};
