/* XPM */
static char *result[] = {
/* columns rows colors chars-per-pixel */
"64 64 2 1 ",
"  c #503625",
". c #755338",
/* pixels */
"................................................    ............",
"................................................    ............",
"................................................    ............",
"................................................    ............",
"................................................    ............",
"................................................    ............",
"................................................    ............",
"................................................    ............",
"                ....        ................                    ",
"                ....        ................                    ",
"                ....        ................                    ",
"                ....        ................                    ",
"................................................................",
"................................................................",
"................................................................",
"................................................................",
"................................................................",
"................................................................",
"................................................................",
"................................................................",
"................................................................",
"................................................................",
"................................................................",
"................................................................",
"................................................................",
"....................    ........................................",
"....................    ........................................",
"....................    ........................................",
"....................    ........................................",
"                                ....        ................    ",
"                                ....        ................    ",
"                                ....        ................    ",
"                                ....        ................    ",
"....    ........................................................",
"....    ........................................................",
"....    ........................................................",
"....    ........................................................",
"................................................................",
"................................................................",
"................................................................",
"................................................................",
"................................................................",
"................................................................",
"................................................................",
"................................................................",
"................................................................",
"................................................................",
"................................................................",
"................................................................",
"................................................................",
"            ............                                        ",
"            ............                                        ",
"            ............                                        ",
"            ............                                        ",
"................................................    ............",
"................................................    ............",
"................................................    ............",
"................................................    ............",
"................................................................",
"................................................................",
"................................................................",
"................................................................",
"................................................................",
"................................................................"
};
