/* XPM */
static char *result[] = {
/* columns rows colors chars-per-pixel */
"64 64 162 2 ",
"   c #010101",
".  c gray5",
"X  c gray7",
"o  c #1C1C1C",
"O  c #292500",
"+  c #2D2B00",
"@  c #282712",
"#  c gray17",
"$  c #383728",
"%  c #3D3C2E",
"&  c #383830",
"*  c #3E3E3D",
"=  c #443F00",
"-  c #444000",
";  c #585400",
":  c #5F5A00",
">  c #48451D",
",  c #4B481D",
"<  c #444115",
"1  c #59561C",
"2  c #5E5A12",
"3  c #625E01",
"4  c #635F0D",
"5  c #635F14",
"6  c #646002",
"7  c #64600E",
"8  c #6B6708",
"9  c #726D03",
"0  c #767100",
"q  c #7D7700",
"w  c #7D780E",
"e  c #656115",
"r  c #67631C",
"t  c #68641D",
"y  c #6E6A1B",
"u  c #7C7610",
"i  c #7E7813",
"p  c #76711E",
"a  c #797419",
"s  c #7F791B",
"d  c #474525",
"f  c #494725",
"g  c #4D4A26",
"h  c #414028",
"j  c #4D4B2C",
"k  c #5D5A28",
"l  c #4F4D34",
"z  c #514F33",
"x  c #555236",
"c  c #555338",
"v  c #58563E",
"b  c #605D32",
"n  c #686425",
"m  c #6F6A23",
"M  c #706B25",
"N  c #716D2B",
"B  c #7B7624",
"V  c #7F7A24",
"C  c #7B7728",
"Z  c #636036",
"A  c #6A6638",
"S  c #6E6B3F",
"D  c #757136",
"F  c #7B7730",
"G  c #7D7937",
"H  c #7F7B3A",
"J  c #444445",
"K  c #4A4946",
"L  c #4D4D4C",
"P  c #5F5D47",
"I  c #53524B",
"U  c #545454",
"Y  c #5D5D5B",
"T  c #6C6947",
"R  c #62604B",
"E  c #706D42",
"W  c #777445",
"Q  c #7A774B",
"!  c #64635D",
"~  c #666454",
"^  c #75735A",
"/  c #7E7B5A",
"(  c #636364",
")  c #686765",
"_  c #696966",
"`  c #67686B",
"'  c #6D6D6C",
"]  c #656569",
"[  c #706F6F",
"{  c #717067",
"}  c #72716B",
"|  c #797769",
" . c #7A786C",
".. c #6E6F71",
"X. c #747372",
"o. c #7E7D71",
"O. c #7A7A7B",
"+. c #857F0C",
"@. c #817B16",
"#. c #817C24",
"$. c #837E2A",
"%. c #817E5E",
"&. c #85800D",
"*. c #8D8715",
"=. c #86811D",
"-. c #888325",
";. c #8E8925",
":. c #85802A",
">. c #89842C",
",. c #8F8A2F",
"<. c #908A27",
"1. c #948E2E",
"2. c #96902D",
"3. c #868136",
"4. c #8B8635",
"5. c #8E893E",
"6. c #948E31",
"7. c #969031",
"8. c #9C9634",
"9. c #9E9835",
"0. c #A29C37",
"q. c #A49E38",
"w. c #8F8A40",
"e. c #86824A",
"r. c #898550",
"t. c #8E8C6B",
"y. c #908D6D",
"u. c #838383",
"i. c #858588",
"p. c #8B8B8C",
"a. c #8B8A86",
"s. c #979585",
"d. c #999787",
"f. c #90908C",
"g. c #999888",
"h. c #8F8F90",
"j. c #949494",
"k. c #979798",
"l. c #9C9C9C",
"z. c #A09F9A",
"x. c #A2A19C",
"c. c #9F9FA0",
"v. c #A4A4A5",
"b. c #A7A7A8",
"n. c #A7A8A8",
"m. c #ABABAB",
"M. c #B0AFA8",
"N. c #B1B0A9",
"B. c #B3B3B3",
"V. c #BBBBBC",
"C. c #C2C1BF",
"Z. c #C4C4C4",
"A. c #CCCCCD",
"S. c #CFCFD0",
"D. c #CFD0D0",
"F. c #D2D2D2",
"G. c #DBDBDA",
"H. c #E5E6E6",
"J. c #E9E9E9",
"K. c #F3F3F3",
"L. c #F9F9F9",
"P. c None",
/* pixels */
"P.P.P.P.P.P.P.P.P.P.P.P.P.P.P.P.P.P.P.P.P.P.P.P.P.P.P.P.P.P.P.P.P.P.P.P.P.P.P.P.P.P.P.P.P.P.P.P.P.P.P.P.P.P.P.P.P.P.P.P.P.P.P.P.",
"P.P.P.P.P.P.P.P.P.P.P.P.P.P.P.P.P.P.P.P.P.P.P.P.P.P.P.P.P.P.P.P.P.P.P.P.P.P.P.P.P.P.P.P.P.P.P.P.P.P.P.P.P.P.P.P.P.P.P.P.P.P.P.P.",
"P.P.P.P.P.P.P.P.P.P.P.P.P.P.P.P.P.P.P.P.P.P.P.P.P.P.P.P.P.P.P.P.P.P.P.P.P.P.P.P.P.P.P.P.P.P.P.P.P.P.P.P.P.P.P.P.P.P.P.P.P.P.P.P.",
"P.P.P.P.P.P.P.P.P.P.P.P.P.P.P.P.P.P.P.P.P.P.P.P.P.P.P.P.P.P.P.P.P.P.P.P.P.P.P.P.P.P.P.P.P.P.P.P.P.P.P.P.P.P.P.P.P.P.P.P.P.P.P.P.",
"P.P.P.P.P.P.P.P.P.P.P.P.P.P.P.P.P.P.P.P.P.P.P.P.P.P.P.P.P.P.P.P.P.P.P.P.P.P.P.P.P.P.P.P.P.P.P.P.P.P.P.P.P.P.P.P.P.P.P.P.P.P.P.P.",
"P.P.P.P.P.P.P.P.P.P.P.P.P.P.P.P.P.P.P.P.P.P.P.P.P.P.P.P.P.P.P.P.P.P.P.P.P.P.P.P.P.P.P.P.P.P.P.P.P.P.P.P.P.P.P.P.P.P.P.P.P.P.P.P.",
"P.P.P.P.P.P.P.P.P.P.P.P.P.P.P.P.P.P.P.P.P.P.P.P.P.P.P.P.P.P.P.P.P.P.P.P.P.P.P.P.P.P.P.P.P.P.P.P.P.P.P.P.P.P.P.P.P.P.P.P.P.P.P.P.",
"P.P.P.P.P.P.P.P.P.P.P.P.P.P.P.P.P.P.P.P.P.P.P.P.P.P.P.P.P.P.P.P.P.P.P.P.P.P.P.P.P.P.P.P.P.P.P.P.P.P.P.P.P.P.P.P.P.P.P.P.P.P.P.P.",
"P.P.P.P.P.P.P.P.P.P.P.P.P.P.P.P.P.P.P.P.P.P.P.P.P.P.P.P.P.P.P.P.P.P.P.P.P.P.P.P.P.P.P.P.P.P.P.P.P.P.P.P.P.P.P.P.P.P.P.P.P.P.P.P.",
"P.P.P.P.P.P.P.P.P.P.P.P.P.P.P.P.P.P.P.P.P.P.P.P.P.P.P.P.P.P.P.P.P.P.P.P.P.P.P.P.P.P.P.P.P.P.P.P.P.P.P.P.P.P.P.P.P.P.P.P.P.P.P.P.",
"P.P.P.P.P.P.P.P.P.P.P.P.P.P.P.P.P.P.P.P.P.P.P.P.P.P.P.P.P.P.P.P.P.P.P.P.P.P.P.P.P.P.P.P.P.P.P.P.P.P.P.P.P.P.P.P.P.P.P.P.P.P.P.P.",
"P.P.P.P.P.P.P.P.P.P.P.P.P.P.P.P.P.P.P.P.P.P.P.P.P.P.P.P.P.P.P.P.P.P.P.P.P.P.P.P.P.P.P.P.P.P.P.P.P.P.P.P.P.P.P.P.P.P.P.P.P.P.P.P.",
"P.P.P.P.P.P.P.P.P.P.P.P.P.P.P.P.P.P.P.P.P.P.P.P.P.P.P.P.P.P.P.P.P.P.P.P.P.P.P.P.P.P.P.P.P.P.P.P.P.P.P.P.P.P.P.P.P.P.P.P.P.P.P.P.",
"P.P.P.P.P.P.P.P.P.P.P.P.P.P.P.P.P.P.P.P.P.P.P.P.P.P.P.P.P.P.P.P.P.P.P.P.P.P.P.P.P.P.P.P.P.P.P.P.P.P.P.P.P.P.P.P.P.P.P.P.P.P.P.P.",
"P.P.P.P.P.P.P.P.P.P.P.P.P.P.P.P.P.P.P.P.P.P.P.P.P.P.P.P.P.P.P.P.P.P.P.P.P.P.P.P.P.P.P.P.P.P.P.P.P.P.P.P.P.P.P.P.P.P.P.P.P.P.P.P.",
"P.P.P.P.P.P.P.P.P.P.P.P.P.P.P.P.P.P.P.P.P.P.P.P.P.P.P.P.P.P.P.P.P.P.P.P.P.P.P.P.P.P.P.P.P.P.P.P.P.P.P.P.P.P.P.P.P.P.P.P.P.P.P.P.",
"P.P.P.P.P.P.P.P.P.P.P.P.P.P.P.P.P.q.0.0.0.q.0.P.P.P.P.P.P.P.P.P.P.P.P.P.P.P.P.P.P.P.P.P.P.P.P.P.P.P.P.P.P.P.P.P.P.P.P.P.P.P.P.P.",
"P.P.P.P.P.P.P.P.P.P.P.P.P.P.P.P.9.9.9.9.9.9.9.9.P.P.P.P.P.P.P.P.P.P.P.P.P.P.P.P.P.P.P.P.P.P.P.P.P.P.P.P.P.P.P.P.P.P.P.P.P.P.P.P.",
"P.P.P.P.P.P.P.P.P.P.P.P.P.P.P.P.6.1.1.1.1.1.1.1.P.P.P.P.P.P.P.P.P.P.P.P.P.P.P.P.P.P.P.P.P.P.P.P.P.P.P.P.P.P.P.P.P.P.P.P.P.P.P.P.",
"P.P.P.P.P.P.P.P.P.P.P.P.P.P.P.;.=.@.i i i i @.=.;.P.P.P.P.P.P.P.P.P.P.P.P.P.P.P.P.P.P.P.P.P.P.P.P.P.P.P.P.P.P.P.P.P.P.P.P.P.P.P.",
"P.P.P.P.P.P.P.P.P.P.P.P.P.9.7.>.a 8 3 3 3 6 8 a -.7.0.P.P.P.P.P.P.P.P.P.P.P.P.P.P.P.P.P.P.P.P.P.P.P.P.P.P.P.P.P.P.P.P.P.P.P.P.P.",
"P.P.P.P.P.P.P.P.P.P.P.P.9.8.6.$.D Z c l z c Z D 3.6.8.9.P.P.P.P.P.P.P.P.P.P.P.P.P.P.P.P.P.P.P.P.P.P.P.P.P.P.P.P.P.P.P.P.P.P.P.P.",
"P.P.P.P.P.P.P.P.P.P.P.P.7.6.w.r.t.{ X.X.X. .| %.r.w.6.2.P.P.P.P.P.P.P.P.P.P.P.P.P.P.P.P.P.P.P.P.P.P.P.P.P.P.P.P.P.P.P.P.P.P.P.P.",
"P.P.P.P.P.P.P.P.P.P.P.*.&.$.e.t.s.x.v.m.n.v.x.g.t.e.$.+.*.P.P.P.P.P.P.P.P.P.P.P.P.P.P.P.P.P.P.P.P.P.P.P.P.P.P.P.P.P.P.P.P.P.P.P.",
"P.P.P.P.P.P.P.P.P.9.2.&.0 N / s.M.C.A.F.F.F.Z.m.s.| N 0 &.2.0.0.q.0.0.0.0.0.0.0.0.0.0.0.0.0.0.0.0.0.0.0.0.0.0.q.0.q.q.P.P.P.P.P.",
"P.P.P.P.P.P.P.P.0.8.6.#.N T t.l.C.G.H.J.J.H.G.C.z.%.T N $.7.8.0.8.0.0.8.8.0.0.8.8.0.0.8.0.8.8.0.9.9.9.9.8.0.8.8.9.9.9.9.P.P.P.P.",
"P.P.P.P.P.P.P.P.7.6.w.e./ o.f.m.Z.G.H.J.J.H.G.Z.m.f.%.| e.5.6.1.1.1.1.1.1.1.1.1.1.1.1.1.1.6.1.1.1.1.1.1.1.1.6.6.6.6.6.7.P.P.P.P.",
"P.P.P.P.P.P.P.;.>.3.r.y.g.x.m.V.Z.A.F.F.F.S.A.Z.V.M.x.g.r.%.V q q w @.u u @.u u w w @.@.u u @.u w @.i i u @.s @.#.#.$.>.,.P.P.P.",
"P.P.P.P.P.9.7.=.a D %.g.N.C.Z.Z.V.B.m.v.n.m.B.V.Z.Z.C.M.s./ n 3 3 3 3 3 3 3 3 3 3 3 3 3 3 3 3 3 3 3 3 3 3 3 3 4 e t m C >.7.0.0.",
"P.P.P.P.0.9.1.@.8 Z | x.Z.F.G.A.M.p.X.) ' X.p.m.A.G.G.Z.x.o.P j j z x c x x x x x x x x x x x x x x x x c c z j d , 1 m $.6.8.0.",
"P.P.P.P.0.9.1.i 6 x } l.Z.G.G.Z.v.X.J . . J X.v.Z.G.H.A.B.j.O.} [ } X. .X.X.X.X.X.X.X.X.X.} X.X.} X.X.X.X.} _ Y K % , r #.7.9.0.",
"P.P.P.P.0.9.6.s 3 z ) k.V.F.F.C.k.( X     X Y k.V.F.G.F.Z.B.m.b.v.b.b.b.n.b.b.b.b.b.b.b.v.b.v.b.b.b.b.b.v.v.k.u.] K d 5 #.6.9.0.",
"P.P.P.P.0.9.1.s 7 j Y i.m.Z.C.m.a.U         U i.n.Z.F.F.F.A.F.F.F.F.F.F.S.F.S.F.D.D.D.D.S.S.F.S.D.F.S.F.S.A.V.b.i.Y j 4 s 1.0.0.",
"P.P.P.P.0.9.6.V e j U O.l.m.m.l.O.U o     o U X.k.B.Z.A.G.H.H.J.J.J.H.J.H.J.J.H.J.H.J.J.J.J.J.J.J.J.J.J.K.H.G.V.k.] z : a 6.8.0.",
"P.P.P.P.0.9.6.#.e g L X.h.c.c.h.X.L o     o K ..p.v.V.A.F.H.H.J.J.H.H.H.H.J.J.H.J.J.J.K.L.L.L.K.K.J.J.K.K.K.H.S.c.X.c 3 i 1.9.0.",
"P.P.P.P.0.9.6.@.e d L ..p.l.l.p...J .     X J ' a.v.B.V.Z.A.S.F.F.F.F.F.F.D.S.F.D.F.G.H.K.L.L.K.H.G.G.J.K.L.K.F.b.X.c 3 w 1.9.0.",
"P.P.P.P.0.9.6.V e g L ' p.l.l.p.X.J X     X J ..p.c.n.m.m.n.n.n.b.n.n.v.v.n.n.v.v.m.V.D.J.K.K.J.F.C.C.F.H.K.J.F.n.X.c : w 1.0.0.",
"P.P.P.P.q.9.6.#.e g I X.a.l.l.p.X.L #     # L X.a.l.v.l.p.O.O.} X.X.X.X.X.X.X.[ ' O.j.V.F.J.J.F.B.l.k.B.F.J.H.S.v.X.x 3 u 1.8.0.",
"P.P.P.P.0.9.7.#.y k P { i.j.k.a.X.( L J J L ( X.a.j.j.a.| ~ v x z x x x c x z h $ J X.c.Z.G.F.Z.z.X.O.c.Z.F.G.C.l._ l 3 i 1.9.0.",
"P.P.P.P.P.9.7.-.B N E ^ o.u.u.u.O.X.X.X...X.X.O.u.i.u. .^ A 5 3 3 3 3 3 3 3 ; = O @ U i.n.V.V.v.u.Y Y u.b.V.V.b.i.Y j 5 @.1.9.0.",
"P.P.P.P.P.P.P.1.>.$.$.Q ^ ' X.O.u.i.p.p.p.p.a.u.O.X.{ ^ W C a w +.w u i i u 9 : = + * ] u.j.j.u.( J J ( u.j.j.i.` K f e V 7.9.0.",
"P.P.P.P.P.P.P.P.7.6.w.H T R ! X.u.k.l.c.c.l.j.i.X.! R S H 4.1.1.1.1.1.6.1.1.>.p 2 < $ K Y _ ` Y K & % K Y ) _ Y L & , r #.1.9.0.",
"P.P.P.P.P.P.P.P.9.8.6.$.M b R { u.j.l.c.c.l.j.u.{ R b m $.6.8.0.9.9.9.0.9.8.1.$.m 1 , f j z z j d > > f j z z j f , 1 M $.7.9.0.",
"P.P.P.P.P.P.P.P.P.0.2.-.a M S ^ o.i.a.h.p.p.u.o.^ T M a -.1.9.0.0.0.0.0.q.0.7.>.C M t e 4 6 3 7 e r r e e 3 3 4 e t M B >.7.9.0.",
"P.P.P.P.P.P.P.P.P.P.P.<.-.$.H Q ^ { X.....} } ^ Q H $.-.<.P.P.P.P.P.P.P.P.P.P.6.>.:.#.#.s s s s #.#.$.V s @.s s V $.$.>.,.P.P.P.",
"P.P.P.P.P.P.P.P.P.P.P.P.6.6.4.H E P I L L I P E H 4.6.7.P.P.P.P.P.P.P.P.P.P.P.P.7.6.6.6.1.1.6.1.1.7.6.6.1.6.1.6.1.7.6.7.P.P.P.P.",
"P.P.P.P.P.P.P.P.P.P.P.P.9.8.6.>.N k g f f g k N $.6.8.0.P.P.P.P.P.P.P.P.P.P.P.P.9.9.9.9.9.9.9.9.9.9.9.9.9.9.9.9.9.9.9.9.P.P.P.P.",
"P.P.P.P.P.P.P.P.P.P.P.P.P.0.7.>.B y e e e e y B >.7.9.P.P.P.P.P.P.P.P.P.P.P.P.P.P.0.0.q.q.0.0.q.0.0.0.0.0.0.q.0.0.0.0.P.P.P.P.P.",
"P.P.P.P.P.P.P.P.P.P.P.P.P.P.P.1.-.#.#.#.V #.#.-.1.P.P.P.P.P.P.P.P.P.P.P.P.P.P.P.P.P.P.P.P.P.P.P.P.P.P.P.P.P.P.P.P.P.P.P.P.P.P.P.",
"P.P.P.P.P.P.P.P.P.P.P.P.P.P.P.P.7.7.6.6.1.1.7.7.P.P.P.P.P.P.P.P.P.P.P.P.P.P.P.P.P.P.P.P.P.P.P.P.P.P.P.P.P.P.P.P.P.P.P.P.P.P.P.P.",
"P.P.P.P.P.P.P.P.P.P.P.P.P.P.P.P.9.9.9.9.9.9.9.9.P.P.P.P.P.P.P.P.P.P.P.P.P.P.P.P.P.P.P.P.P.P.P.P.P.P.P.P.P.P.P.P.P.P.P.P.P.P.P.P.",
"P.P.P.P.P.P.P.P.P.P.P.P.P.P.P.P.P.0.0.0.0.0.0.P.P.P.P.P.P.P.P.P.P.P.P.P.P.P.P.P.P.P.P.P.P.P.P.P.P.P.P.P.P.P.P.P.P.P.P.P.P.P.P.P.",
"P.P.P.P.P.P.P.P.P.P.P.P.P.P.P.P.P.P.P.P.P.P.P.P.P.P.P.P.P.P.P.P.P.P.P.P.P.P.P.P.P.P.P.P.P.P.P.P.P.P.P.P.P.P.P.P.P.P.P.P.P.P.P.P.",
"P.P.P.P.P.P.P.P.P.P.P.P.P.P.P.P.P.P.P.P.P.P.P.P.P.P.P.P.P.P.P.P.P.P.P.P.P.P.P.P.P.P.P.P.P.P.P.P.P.P.P.P.P.P.P.P.P.P.P.P.P.P.P.P.",
"P.P.P.P.P.P.P.P.P.P.P.P.P.P.P.P.P.P.P.P.P.P.P.P.P.P.P.P.P.P.P.P.P.P.P.P.P.P.P.P.P.P.P.P.P.P.P.P.P.P.P.P.P.P.P.P.P.P.P.P.P.P.P.P.",
"P.P.P.P.P.P.P.P.P.P.P.P.P.P.P.P.P.P.P.P.P.P.P.P.P.P.P.P.P.P.P.P.P.P.P.P.P.P.P.P.P.P.P.P.P.P.P.P.P.P.P.P.P.P.P.P.P.P.P.P.P.P.P.P.",
"P.P.P.P.P.P.P.P.P.P.P.P.P.P.P.P.P.P.P.P.P.P.P.P.P.P.P.P.P.P.P.P.P.P.P.P.P.P.P.P.P.P.P.P.P.P.P.P.P.P.P.P.P.P.P.P.P.P.P.P.P.P.P.P.",
"P.P.P.P.P.P.P.P.P.P.P.P.P.P.P.P.P.P.P.P.P.P.P.P.P.P.P.P.P.P.P.P.P.P.P.P.P.P.P.P.P.P.P.P.P.P.P.P.P.P.P.P.P.P.P.P.P.P.P.P.P.P.P.P.",
"P.P.P.P.P.P.P.P.P.P.P.P.P.P.P.P.P.P.P.P.P.P.P.P.P.P.P.P.P.P.P.P.P.P.P.P.P.P.P.P.P.P.P.P.P.P.P.P.P.P.P.P.P.P.P.P.P.P.P.P.P.P.P.P.",
"P.P.P.P.P.P.P.P.P.P.P.P.P.P.P.P.P.P.P.P.P.P.P.P.P.P.P.P.P.P.P.P.P.P.P.P.P.P.P.P.P.P.P.P.P.P.P.P.P.P.P.P.P.P.P.P.P.P.P.P.P.P.P.P.",
"P.P.P.P.P.P.P.P.P.P.P.P.P.P.P.P.P.P.P.P.P.P.P.P.P.P.P.P.P.P.P.P.P.P.P.P.P.P.P.P.P.P.P.P.P.P.P.P.P.P.P.P.P.P.P.P.P.P.P.P.P.P.P.P.",
"P.P.P.P.P.P.P.P.P.P.P.P.P.P.P.P.P.P.P.P.P.P.P.P.P.P.P.P.P.P.P.P.P.P.P.P.P.P.P.P.P.P.P.P.P.P.P.P.P.P.P.P.P.P.P.P.P.P.P.P.P.P.P.P.",
"P.P.P.P.P.P.P.P.P.P.P.P.P.P.P.P.P.P.P.P.P.P.P.P.P.P.P.P.P.P.P.P.P.P.P.P.P.P.P.P.P.P.P.P.P.P.P.P.P.P.P.P.P.P.P.P.P.P.P.P.P.P.P.P.",
"P.P.P.P.P.P.P.P.P.P.P.P.P.P.P.P.P.P.P.P.P.P.P.P.P.P.P.P.P.P.P.P.P.P.P.P.P.P.P.P.P.P.P.P.P.P.P.P.P.P.P.P.P.P.P.P.P.P.P.P.P.P.P.P."
};
