/* XPM */
static char *result[] = {
/* columns rows colors chars-per-pixel */
"64 64 12 1 ",
"  c black",
". c #21110D",
"X c #171C31",
"o c #402717",
"O c #573A23",
"+ c #AC7B5D",
"@ c #1D438A",
"# c #2C65B5",
"$ c #787E97",
"% c #A4A8B5",
"& c #C1AC8F",
"* c None",
/* pixels */
"****************************************************************",
"****************************************************************",
"****************************************************************",
"****************************************************************",
"****************************************************************",
"****************************************************************",
"****************************************************************",
"****************************************************************",
"****************************************************************",
"****************************************************************",
"****************************************************************",
"****************************************************************",
"****************************************************************",
"******************************    **        ********************",
"******************************    **        ********************",
"**************************      OO  ooOOOO  ********************",
"**************************      OO  ooOOOO  ********************",
"************************  OOOOooOOooOOOO    ********************",
"************************  OOOOooOOooOOOO    ********************",
"**********************  OOOOOOOOOOOOOOOOOOoo  ******************",
"**********************  OOOOOOOOOOOOOOOOOOoo  ******************",
"********************  OOOOOOOOOOOOOOOOOOOOOOoo  ****************",
"********************  OOOOOOOOOOOOOOOOOOOOOOoo  ****************",
"********************  OOOOOOooooOOOOOOooOOOOoo  ****************",
"********************  OOOOOOooooOOOOOOooOOOOoo  ****************",
"******************  ooOOoo++++ooOOOOOOoooooooo  ****************",
"******************  ooOOoo++++ooOOOOOOoooooooo  ****************",
"******************  oooo++++++++ooOOOOooooOOoo  ****************",
"******************  oooo++++++++ooOOOOooooOOoo  ****************",
"******************  oo  ..&&&&..++OOoo++OOOOoo  ****************",
"******************  oo  ..&&&&..++OOoo++OOOOoo  ****************",
"********************    ..&&&&..&&oo++++OOoooo  ****************",
"********************    ..&&&&..&&oo++++OOoooo  ****************",
"**********************  &&&&&&&&&&&&++++oooo  ******************",
"**********************  &&&&&&&&&&&&++++oooo  ******************",
"**********************  ++&&&&&&&&++++oooo  ********************",
"**********************  ++&&&&&&&&++++oooo  ********************",
"************************  ++++++++++oooo  **********************",
"************************  ++++++++++oooo  **********************",
"************************  oo%%$$$$OOOOoo  **********************",
"************************  oo%%$$$$OOOOoo  **********************",
"**********************  ++oo%%%%$$OOOO&&&&  ********************",
"**********************  ++oo%%%%$$OOOO&&&&  ********************",
"**********************  ++oo######OOOO&&&&  ********************",
"**********************  ++oo######OOOO&&&&  ********************",
"**********************XX    ####@@####@@  XX********************",
"**********************XX    ####@@####@@  XX********************",
"********************XXXXXX  OOoo    OOoo  XXXX******************",
"********************XXXXXX  OOoo    OOoo  XXXX******************",
"********************XXXXXXXXXXXXXXXXXXXXXXXXXX******************",
"********************XXXXXXXXXXXXXXXXXXXXXXXXXX******************",
"**********************XXXXXXXXXXXXXXXXXXXXXX********************",
"**********************XXXXXXXXXXXXXXXXXXXXXX********************",
"****************************************************************",
"****************************************************************",
"****************************************************************",
"****************************************************************",
"****************************************************************",
"****************************************************************",
"****************************************************************",
"****************************************************************",
"****************************************************************",
"****************************************************************",
"****************************************************************"
};
