/* XPM */
static char *result[] = {
/* columns rows colors chars-per-pixel */
"64 64 12 1 ",
"  c black",
". c #21110D",
"X c #171C31",
"o c #402717",
"O c #573A23",
"+ c #AC7B5D",
"@ c #1D438A",
"# c #2C65B5",
"$ c #787E97",
"% c #A4A8B5",
"& c #C1AC8F",
"* c None",
/* pixels */
"****************************************************************",
"****************************************************************",
"****************************************************************",
"****************************************************************",
"****************************************************************",
"****************************************************************",
"****************************************************************",
"****************************************************************",
"****************************************************************",
"****************************************************************",
"****************************************************************",
"********************        **    ******************************",
"********************        **    ******************************",
"********************  OOOOoo  OO      **************************",
"********************  OOOOoo  OO      **************************",
"********************    OOOOooOOooOOOO  ************************",
"********************    OOOOooOOooOOOO  ************************",
"******************  ooOOOOOOOOOOOOOOOOOO  **********************",
"******************  ooOOOOOOOOOOOOOOOOOO  **********************",
"****************  ooOOOOOOOOOOOOOOOOOOOOOO  ********************",
"****************  ooOOOOOOOOOOOOOOOOOOOOOO  ********************",
"****************  ooOOOOooOOOOOOooooOOOOOO  ********************",
"****************  ooOOOOooOOOOOOooooOOOOOO  ********************",
"****************  ooooooooOOOOOOoo++++ooOOoo  ******************",
"****************  ooooooooOOOOOOoo++++ooOOoo  ******************",
"****************  ooOOooooOOOOoo++++++++oooo  ******************",
"****************  ooOOooooOOOOoo++++++++oooo  ******************",
"****************  ooOOOO++ooOO++..&&&&..  oo  ******************",
"****************  ooOOOO++ooOO++..&&&&..  oo  ******************",
"****************  ooooOO++++oo&&..&&&&..    ********************",
"****************  ooooOO++++oo&&..&&&&..    ********************",
"******************  oooo++++&&&&&&&&&&&&  **********************",
"******************  oooo++++&&&&&&&&&&&&  **********************",
"********************  oooo++++&&&&&&&&++  **********************",
"********************  oooo++++&&&&&&&&++  **********************",
"**********************  oooo++++++++++  ************************",
"**********************  oooo++++++++++  ************************",
"**********************  ooooOO$$$$$$oo  ************************",
"**********************  ooooOO$$$$$$oo  ************************",
"**********************  ooOOOO$$$$%%oo  ************************",
"**********************  ooOOOO$$$$%%oo  ************************",
"********************  &&&&OOOO$$%%%%oo++  **********************",
"********************  &&&&OOOO$$%%%%oo++  **********************",
"********************  &&&&OOOO######oo++  **********************",
"********************  &&&&OOOO######oo++  **********************",
"********************XX  @@####@@####    XX**********************",
"********************XX  @@####@@####    XX**********************",
"******************XXXX  ooOO    ooOO  XXXXXX********************",
"******************XXXX  ooOO    ooOO  XXXXXX********************",
"******************XXXXXXXXXXXXXXXXXXXXXXXXXX********************",
"******************XXXXXXXXXXXXXXXXXXXXXXXXXX********************",
"********************XXXXXXXXXXXXXXXXXXXXXX**********************",
"********************XXXXXXXXXXXXXXXXXXXXXX**********************",
"****************************************************************",
"****************************************************************",
"****************************************************************",
"****************************************************************",
"****************************************************************",
"****************************************************************",
"****************************************************************",
"****************************************************************",
"****************************************************************",
"****************************************************************",
"****************************************************************"
};
