/* XPM */
static char *result[] = {
/* columns rows colors chars-per-pixel */
"64 64 216 2 ",
"   c #000101",
".  c #040608",
"X  c #0D0709",
"o  c #0A0A0D",
"O  c #180608",
"+  c #0F0E11",
"@  c #131315",
"#  c #171518",
"$  c #1A1619",
"%  c #1A1A1C",
"&  c #1E1315",
"*  c #220A0C",
"=  c #280708",
"-  c #360A0B",
";  c #261517",
":  c #371517",
">  c #320F11",
",  c #1B1E21",
"<  c #281E22",
"1  c #1F2225",
"2  c #212326",
"3  c #2B2325",
"4  c #2C2B2D",
"5  c #26272A",
"6  c #38292D",
"7  c #2D2C30",
"8  c #322E32",
"9  c #392F33",
"0  c #343235",
"q  c #3B393E",
"w  c #393439",
"e  c #580504",
"r  c #451213",
"t  c #4A1213",
"y  c #441A1C",
"u  c #491B1D",
"i  c #5B1516",
"p  c #591819",
"a  c #430000",
"s  c #651515",
"d  c #6C1A1A",
"f  c #651A1B",
"g  c #771D1D",
"h  c #6F0A06",
"j  c #4E1F21",
"k  c #421F21",
"l  c #472528",
"z  c #40363A",
"x  c #42373C",
"c  c #57373A",
"v  c #502628",
"b  c #6A282A",
"n  c #7D2121",
"m  c #673337",
"M  c #713236",
"N  c #6C1F20",
"B  c #3E3E42",
"V  c #5B3D42",
"C  c #413D43",
"Z  c #7C3E43",
"A  c #3F4548",
"S  c #444246",
"D  c #45444A",
"F  c #42494D",
"G  c #4C494E",
"H  c #49444A",
"J  c #58464A",
"K  c #434B50",
"L  c #4D4B51",
"P  c #524E54",
"I  c #5A4C52",
"U  c #4C5358",
"Y  c #535156",
"T  c #55545A",
"R  c #5A575C",
"E  c #7C474A",
"W  c #654E54",
"Q  c #66585C",
"!  c #744C51",
"~  c #5C5C63",
"^  c #555A60",
"/  c #625D64",
"(  c #6E5E65",
")  c #5C646A",
"_  c #5F6A71",
"`  c #636365",
"'  c #65636A",
"]  c #69666E",
"[  c #6B6A6C",
"{  c #6C6067",
"}  c #75676A",
"|  c #626D74",
" . c #6D6B72",
".. c #726E76",
"X. c #637077",
"o. c #6A747C",
"O. c #747474",
"+. c #73747C",
"@. c #7A757D",
"#. c #77797A",
"$. c #811E1D",
"%. c #842323",
"&. c #8B2524",
"*. c #89292A",
"=. c #932B2B",
"-. c #9D2D2D",
";. c #902727",
":. c #873739",
">. c #9E3132",
",. c #932F30",
"<. c #AC3232",
"1. c #A53333",
"2. c #A42F2F",
"3. c #973F42",
"4. c #A33E40",
"5. c #834549",
"6. c #99484B",
"7. c #984E54",
"8. c #9D5359",
"9. c #995459",
"0. c #8B575C",
"q. c #A5474A",
"w. c #A4484B",
"e. c #A65557",
"r. c #B15A54",
"t. c #BA6654",
"y. c #BD7056",
"u. c #AF6157",
"i. c #895E64",
"p. c #975D64",
"a. c #8B6569",
"s. c #93646B",
"d. c #99676B",
"f. c #816D74",
"g. c #8C767E",
"h. c #8E7778",
"j. c #95767C",
"k. c #927071",
"l. c #A9736B",
"z. c #BD7978",
"x. c #A1696C",
"c. c #A65D60",
"v. c #C86B47",
"b. c #C87054",
"n. c #C37868",
"m. c #C38170",
"M. c #7D7C84",
"N. c #777D85",
"B. c #837D85",
"V. c #8A7C85",
"C. c #937C81",
"Z. c #78848C",
"A. c #7C8B93",
"S. c #838384",
"D. c #84838B",
"F. c #8A868F",
"G. c #95848A",
"H. c #848A93",
"J. c #8A8A93",
"K. c #868891",
"L. c #8D949D",
"P. c #88959E",
"I. c #949496",
"U. c #99989A",
"Y. c #938E97",
"T. c #B68886",
"R. c #AA9697",
"E. c #B28E8A",
"W. c #8D9BA4",
"Q. c #8E9FA8",
"!. c #8E97A1",
"~. c #929CA5",
"^. c #939EA8",
"/. c #8FA0A9",
"(. c #94A3AC",
"). c #98A3AD",
"_. c #9AABB5",
"`. c #9CAEB8",
"'. c #97A7B1",
"]. c #9FB0B9",
"[. c #A4A5A5",
"{. c #A6A8AA",
"}. c #A0B1BA",
"|. c #AAB4BB",
" X c #BCBCBC",
".X c #B6B8BB",
"XX c #AAABB0",
"oX c #C89893",
"OX c #D3ACAC",
"+X c #C7BABB",
"@X c #CCAEAA",
"#X c #CFA29F",
"$X c #D6C1BF",
"%X c #ADBBC3",
"&X c #B1BEC5",
"*X c #BAC4CB",
"=X c #CECECD",
"-X c #C1C5C9",
";X c #CAD1D5",
":X c #CBD3D8",
">X c #C7D0D5",
",X c #D2D2D2",
"<X c #D9D8D9",
"1X c #CDCCCE",
"2X c #E5D5D5",
"3X c #D7DEE1",
"4X c #DFE4E6",
"5X c #E5E5E5",
"6X c #E2E7E9",
"7X c #EBEBEB",
"8X c #E7E8EA",
"9X c #F2EBEB",
"0X c #EFF0F2",
"qX c #F2F3F4",
"wX c #F7F8F8",
"eX c None",
/* pixels */
"eXeXeXeXeXeXeXeXeXeXeXeXeXeXeXeXeXeXeXeX. . .   . . . . .   . . eXeXeXeXeXeXeXeXeXeXeXeXeXeXeXeXeXeXeXeXeXeXeXeXeXeXeXeXeXeXeXeX",
"eXeXeXeXeXeXeXeXeXeXeXeXeXeXeXeXeXeXeXeX. X X X O O * O * * * O eXeXeXeXeXeXeXeXeXeXeXeXeXeXeXeXeXeXeXeXeXeXeXeXeXeXeXeXeXeXeXeX",
"eXeXeXeXeXeXeXeXeXeXeXeXeXeXeXeXeXeXeXeX. X O > > r t t t t t r eXeXeXeXeXeXeXeXeXeXeXeXeXeXeXeXeXeXeXeXeXeXeXeXeXeXeXeXeXeXeXeX",
"eXeXeXeXeXeXeXeXeXeXeXeXeXeXeXeXeXeXeXeX. O > r p N N g d d d f i eXeXeXeXeXeXeXeXeXeXeXeXeXeXeXeXeXeXeXeXeXeXeXeXeXeXeXeXeXeXeX",
"eXeXeXeXeXeXeXeXeXeXeXeXeXeXeXeXeXeXeXeX  O : p g n *.&.&.&.n g s t = eXeXeXeXeXeXeXeXeXeXeXeXeXeXeXeXeXeXeXeXeXeXeXeXeXeXeXeXeX",
"eXeXeXeXeXeXeXeXeXeXeXeXeXeXeXeXeXeXeXeX. = r f n =.-.>.>.>.,.*.b u *   eXeXeXeXeXeXeXeXeXeXeXeXeXeXeXeXeXeXeXeXeXeXeXeXeXeXeXeX",
"eXeXeXeXeXeXeXeXeXeXeXeXeXeXeXeXeXeXeXeX. * t f %.=.>.1.4.q.>.:.b y O   eXeXeXeXeXeXeXeXeXeXeXeXeXeXeXeXeXeXeXeXeXeXeXeXeXeXeXeX",
"eXeXeXeXeXeXeXeXeXeXeXeXeXeXeXeXeXeXeXeXeX* r f g *.:.3.7.7.0.5.m y O     eXeXeXeXeXeXeXeXeXeXeXeXeXeXeXeXeXeXeXeXeXeXeXeXeXeXeX",
"eXeXeXeXeXeXeXeXeXeXeXeXeXeXeXeXeXeXeXeXeXeXeXe s g M 5.i.p.a.! V 6 O   .               . . . eXeXeXeXeXeXeXeXeXeXeXeXeXeXeXeXeX",
"eXeXeXeXeXeXeXeXeXeXeXeXeXeXeXeXeXeXeXeXeXeXeXeXu v V W } f.f.( I C 5 % 1 5 1 1 2 1 2 2 2 2 1 1 eXeXeXeXeXeXeXeXeXeXeXeXeXeXeXeX",
"eXeXeXeXeXeXeXeXeXeXeXeXeXeXeXeXeXeXeXeXeXeXeXeX9 x V ~ } @.@...' T K F A A K A K K K K A K A A eXeXeXeXeXeXeXeXeXeXeXeXeXeXeXeX",
"eXeXeXeXeXeXeXeXeXeXeXeXeXeXeXeXeXeXeXeXeXeXeXq C L ^ ( ..M.M.N.+.o.X.| X.X.X._ _ X.X.X._ X._ ) ^ eXeXeXeXeXeXeXeXeXeXeXeXeXeXeX",
"eXeXeXeXeXeXeXeXeXeXeXeXeXeXeXeXeXeXeXeXeX+ 8 D ~ /  ...M.M.B.D.A.A.A.A.A.A.A.A.A.A.A.A.A.A.A.N.) A 2 eXeXeXeXeXeXeXeXeXeXeXeXeX",
"eXeXeXeXeXeXeXeXeXeXeXeXeXeXeXeXeXeXeXeX+ 2 B Y / ..M.B.B.B.K.J.P.W././././././././.Q.Q.Q.Q.A.Z._ A 1 . eXeXeXeXeXeXeXeXeXeXeXeX",
"eXeXeXeXeXeXeXeXeXeXeXeXeXeXeXeXeXeXeXeX8 B L ~ ..M.B.J.D.F.J.!.~.).'.'._._._._._._._._._.'.Q.Z._ K 1 . eXeXeXeXeXeXeXeXeXeXeXeX",
"eXeXeXeXeXeXeXeXeXeXeXeXeXeXeXeXeXeXeXB H P ~ ..M.K.L.L.L.L.!.W.).'.`._.`._._._._.`._.`.`._.Q.A.X.K 1   eXeXeXeXeXeXeXeXeXeXeXeX",
"eXeXeXeXeXeXeXeXeXeXeXeXeXeXeXeXeX% 0 H T ' ..M.H.!.^.^.~.~.^.).'._._.`.`.`.`.`.`.`.].].]._./.A._ K 2   eXeXeXeXeXeXeXeXeXeXeXeX",
"eXeXeXeXeXeXeXeXeXeXeXeXeXeXeXeX  % w P / ..M.J.!.(.'.'._._._.`.`.].].}.].}.}.}.].].}.}.].].(.A.X.K 2   eXeXeXeXeXeXeXeXeXeXeXeX",
"eXeXeXeXeXeXeXeXeXeXeXeXeXeXeXeX  % B T  .M.J.W.^.'.`.}.|.%X%X%X&X&X&X&X&X&X&X&X&X&X&X&X&X%X].P.N.U 5   eXeXeXeXeXeXeXeXeXeXeXeX",
"eXeXeXeXeXeXeXeXeXeXeXeXeXeXeXeX  % B ^ +.K.!.^.(.'.%X&X*X>X>X:X:X>X:X:X:X>X>X>X:X:X:X:X:X>X*X{.Z.~ 7   eXeXeXeXeXeXeXeXeXeXeXeX",
"eXeXeXeXeXeXeXeXeXeXeXeXeXeXeXeX  , A ) N.P.^.(._.`.%X*X:X3X4X6X6X6X6X6X6X6X6X6X6X6X6X6X5X5X,X XI.` 0   eXeXeXeXeXeXeXeXeXeXeXeX",
"eXeXeXeXeXeXeXeXeXeXeXeXeXeXeXeX  1 K _ Z.W.'.'._.`.%X-X3X8XqXqX0X0X0X0X0X0X0X0X0X0X0X0X9X9X5X XU.[ 0   eXeXeXeXeXeXeXeXeXeXeXeX",
"eXeXeXeXeXeXeXeXeXeXeXeXeXeXeXeX  2 A X.A.Q.'._.`.`.%X>X4X0XwXwXqX7X7X7X7X7X7X7X7X7X7X7X5X5X2X XI.[ 0   eXeXeXeXeXeXeXeXeXeXeXeX",
"eXeXeXeXeXeXeXeXeXeXeXeXeXeXeXeX  2 K X.A./._.`.`.}.&X:X6XqXwX0X5X<X=X=X=X=X=X=X=X,X=X=X=X=X X[.S.~ 4   eXeXeXeXeXeXeXeXeXeXeXeX",
"eXeXeXeXeXeXeXeXeXeXeXeXeXeXeXeX  1 K X.A.Q._.`.`.}.&X:X8XqXqX8X=X.X[.[.[.[.[.[.[.[.[.[.[.[.U.S.[ H 2   eXeXeXeXeXeXeXeXeXeXeXeX",
"eXeXeXeXeXeXeXeXeXeXeXeXeXeXeXeX  2 K | A.Q.'._.'.}.&X:X6X0X7X<X XU.S.#.O.#.#.O.O.O.O.O.#.#.[ ` G 0 $   eXeXeXeXeXeXeXeXeXeXeXeX",
"eXeXeXeXeXeXeXeXeXeXeXeXeXeXeXeX  2 F _ Z.W.'.'._.}.&X:X6X0X0X<X XU.S.#.O.O.O.` Y A A R [ O.O.` G 0 %   eXeXeXeXeXeXeXeXeXeXeXeX",
"eXeXeXeXeXeXeXeXeXeXeXeXeXeXeXeX  , A ) N.P.^.).'.`.&X:X6XqXqX5X=X X{.[.[.[.U.S.` A A ` S.I.I.S.[ G 2   eXeXeXeXeXeXeXeXeXeXeXeX",
"eXeXeXeXeXeXeXeXeXeXeXeXeXeXeXeX  , B ^ +.K.!.~.(.`.&X:X6XqXwX9X5X<X,X$X=X$X-X[.#.R ^ S.[. X.X[.S.R 4 . eXeXeXeXeXeXeXeXeXeXeXeX",
"eXeXeXeXeXeXeXeXeXeXeXeXeXeXeXeX  , q T  .M.H.!.^._.&X>X4X0XwXwXqX7X7X7X7X5X,X XI.O.O.I. X,X,X.XU.[ 0   eXeXeXeXeXeXeXeXeXeXeXeX",
"eXeXeXeXeXeXeXeXeXeXeXeXeXeXeXeX  $ 0 H / ..M.H.!.).|.-X<X8X0X0X9X9X9X9X9X5X<X$XR.h.k.R.$X,X2X$XU.[ 0   eXeXeXeXeXeXeXeXeXeXeXeX",
"eXeXeXeXeXeXeXeXeXeXeXeXeXeXeXeX  @ 4 C P / ..N.H.!._..X-X:X<X2X2X2X2X2X2X2X$X@XE.y.l.E.@X$X$X.XG.Q 0   eXeXeXeXeXeXeXeXeXeXeXeX",
"eXeXeXeXeXeXeXeXeXeXeXeXeXeXeXeX  + < 7 C L ~  .M.L.^.XXXX&X+X$X$X@XOXOXOXOXOXoXz.y.y.m.oXoXoXE.f.J 3   eXeXeXeXeXeXeXeXeXeXeXeX",
"eXeXeXeXeXeXeXeXeXeXeXeXeXeXeXeX. o @ , 3 w G / N.V.V.V.U.R.R.C.E.m.C.n.m.z.n.b.b.v.v.v.n.z.l.p.! c <   eXeXeXeXeXeXeXeXeXeXeXeX",
"eXeXeXeXeXeXeXeXeXeXeXeXeXeXeXeX. . . . o , C I ( B.V.V.C.C.C.C.d.u.e.e.e.e.r.t.b.v.v.b.t.r.6.5.M l ;   eXeXeXeXeXeXeXeXeXeXeXeX",
"eXeXeXeXeXeXeXeXeXeXeXeXeXeXeXeXeX      . O 6 V ! 0.p.p.C.s.s.p.0.9.9.7.e.e.e.r.t.b.t.b.r.e.6.Z m k &   eXeXeXeXeXeXeXeXeXeXeXeX",
"eXeXeXeXeXeXeXeXeXeXeXeXeXeXeXeXeXeXeX  . O k m 3.7.7.9.c.8.8.8.p.s.s.s.p.p.s.x.l.l.l.l.x.p.i.! c 6 &   eXeXeXeXeXeXeXeXeXeXeXeX",
"eXeXeXeXeXeXeXeXeXeXeXeXeXeXeXeXeXeXeXeX. * k b Z 3.7.4.q.4.8.p.s.s.V.V.V.V.C.C.C.C.C.C.C.V.f.( I 9 $   eXeXeXeXeXeXeXeXeXeXeXeX",
"eXeXeXeXeXeXeXeXeXeXeXeXeXeXeXeXeXeXeXeX> > y m 3.3.4.e.4.e.e.p.C.V.V.J.J.V.V.V.F.F.F.F.J.F.M. .R w %   eXeXeXeXeXeXeXeXeXeXeXeX",
"eXeXeXeXeXeXeXeXeXeXeXeXeXeXeXeXeXeXeXd t : l m E 7.8.8.c.8.x.C.C.Y.!.!.W.!.!.W.L.L.!.L.L.L.Z.N.~ A ,   eXeXeXeXeXeXeXeXeXeXeXeX",
"eXeXeXeXeXeXeXeXeXeXeXeXeXeXeXeXeX<.=.$.s y l J ! i.s.p.d.k.C.C.Y.~.~.).Q.^.^.^.^.^.^.^.^.W.P.N.) A 1   eXeXeXeXeXeXeXeXeXeXeXeX",
"eXeXeXeXeXeXeXeXeXeXeXeXeXeXeXeX<.<.-.%.s j 9 I ( f.V.V.C.V.V.Y.~.^.).).'.'.(.'.(.'.(.'.'.(.!.Z._ F 1   eXeXeXeXeXeXeXeXeXeXeXeX",
"eXeXeXeXeXeXeXeXeXeXeXeXeXeXeXeX<.<.>.&.d j x P / M.B.V.V.V.B.H.L.!.W.^././.Q.Q././.Q.(.(.(.W.N.' A 2   eXeXeXeXeXeXeXeXeXeXeXeX",
"eXeXeXeXeXeXeXeXeXeXeXeXeXeXeX<.<.<.-.&.d j x P ] M.B.B.B.B.K.K.N.A.A.A.A.A.A.A.A.A.A.!.W.!.P.N._ A 1   eXeXeXeXeXeXeXeXeXeXeXeX",
"eXeXeXeXeXeXeXeXeXeXeXeXeX<.<.<.<.<.-.&.d j z P ] M.B.B.B.B.M.M.N.N.N._ _ _ | X._ N.N.N.Z.H.K.N.~ B ,   eXeXeXeXeXeXeXeXeXeXeXeX",
"eXeXeXeXeXeXeXeXeXeXeXeX<.<.<.<.<.<.-.&.d j z Y ' @.B.B.B.B.M.../ U P C K A K K A A ^ ] N.N.N...T B %   eXeXeXeXeXeXeXeXeXeXeXeX",
"eXeXeXeXeXeXeXeXeXeXeXeX<.<.<.<.<.<.-.&.d j z P ' @.B.B.B.M...{ I V l 6 3 3 4 7 B B L ~ ( ..../ L w %   eXeXeXeXeXeXeXeXeXeXeXeX",
"eXeXeXeXeXeXeXeXeXeXeXeX<.<.<.<.<.2.-.&.d j x Y ' @.M.B...] ( ! ! b f e a = ; 7 B K Y ~ ~ / / T H 8 #   eXeXeXeXeXeXeXeXeXeXeXeX",
"eXeXeXeXeXeXeXeXeXeXeXeX<.<.<.<.<.<.-.&.d u z Y ] @.@.+.] Q W V M *.g h e - 3 B P / / / ~ I L S q 5 @ eXeXeXeXeXeXeXeXeXeXeXeXeX",
"eXeXeXeXeXeXeXeXeXeXeXeX<.<.<.<.<.<.-.&.d j z P ] +.@. .~ L c M :.=.;.$.s y 9 G ~ ] ..( T H w 8 2 $ eXeXeXeXeXeXeXeXeXeXeXeXeXeX",
"eXeXeXeXeXeXeXeXeXeXeXeX2.2.<.<.1.2.-.%.s u 9 L / ] ] ' Y x v b %.=.=.%.s u 9 G / ]  ./ P q 2 o   eXeXeXeXeXeXeXeXeXeXeXeXeXeXeX",
"eXeXeXeXeXeXeXeXeXeXeXeX-.-.-.<.-.-.&.g i y 8 C T / / T D 6 t s $.;.;.g i r 8 S T / / T H 8 o   eXeXeXeXeXeXeXeXeXeXeXeXeXeXeXeX",
"eXeXeXeXeXeXeXeXeXeXeXeXeX%.=.&.=.%.n s t > 3 0 C H G D q 3 - e g %.g d t : 3 0 C L P H q 3   eXeXeXeXeXeXeXeXeXeXeXeXeXeXeXeXeX",
"eXeXeXeXeXeXeXeXeXeXeXeXeXeXeXeXeXeXp r > * $ 2 7 0 0 8 5 ; eXeXeXeXi t - * $ 1 7 8 0 8 4 % eXeXeXeXeXeXeXeXeXeXeXeXeXeXeXeXeXeX",
"eXeXeXeXeXeXeXeXeXeXeXeXeXeXeXeXeXeXeX= O X o + @ $ # # @ eXeXeXeXeXeX* O X o + @ # $ # @ eXeXeXeXeXeXeXeXeXeXeXeXeXeXeXeXeXeXeX",
"eXeXeXeXeXeXeXeXeXeXeXeXeXeXeXeXeXeXeXeX                eXeXeXeXeXeXeXeX  .             eXeXeXeXeXeXeXeXeXeXeXeXeXeXeXeXeXeXeXeX",
"eXeXeXeXeXeXeXeXeXeXeXeXeXeXeXeXeXeXeXeX                eXeXeXeXeXeXeXeX                eXeXeXeXeXeXeXeXeXeXeXeXeXeXeXeXeXeXeXeX",
"eXeXeXeXeXeXeXeXeXeXeXeXeXeXeXeXeXeXeXeXeXeXeXeXeXeXeXeXeXeXeXeXeXeXeXeXeXeXeXeXeXeXeXeXeXeXeXeXeXeXeXeXeXeXeXeXeXeXeXeXeXeXeXeX",
"eXeXeXeXeXeXeXeXeXeXeXeXeXeXeXeXeXeXeXeXeXeXeXeXeXeXeXeXeXeXeXeXeXeXeXeXeXeXeXeXeXeXeXeXeXeXeXeXeXeXeXeXeXeXeXeXeXeXeXeXeXeXeXeX",
"eXeXeXeXeXeXeXeXeXeXeXeXeXeXeXeXeXeXeXeXeXeXeXeXeXeXeXeXeXeXeXeXeXeXeXeXeXeXeXeXeXeXeXeXeXeXeXeXeXeXeXeXeXeXeXeXeXeXeXeXeXeXeXeX",
"eXeXeXeXeXeXeXeXeXeXeXeXeXeXeXeXeXeXeXeXeXeXeXeXeXeXeXeXeXeXeXeXeXeXeXeXeXeXeXeXeXeXeXeXeXeXeXeXeXeXeXeXeXeXeXeXeXeXeXeXeXeXeXeX",
"eXeXeXeXeXeXeXeXeXeXeXeXeXeXeXeXeXeXeXeXeXeXeXeXeXeXeXeXeXeXeXeXeXeXeXeXeXeXeXeXeXeXeXeXeXeXeXeXeXeXeXeXeXeXeXeXeXeXeXeXeXeXeXeX",
"eXeXeXeXeXeXeXeXeXeXeXeXeXeXeXeXeXeXeXeXeXeXeXeXeXeXeXeXeXeXeXeXeXeXeXeXeXeXeXeXeXeXeXeXeXeXeXeXeXeXeXeXeXeXeXeXeXeXeXeXeXeXeXeX",
"eXeXeXeXeXeXeXeXeXeXeXeXeXeXeXeXeXeXeXeXeXeXeXeXeXeXeXeXeXeXeXeXeXeXeXeXeXeXeXeXeXeXeXeXeXeXeXeXeXeXeXeXeXeXeXeXeXeXeXeXeXeXeXeX"
};
