/* XPM */
static char *result[] = {
/* columns rows colors chars-per-pixel */
"64 64 6 1 ",
"  c black",
". c #306837",
"X c #37773F",
"o c #3E8948",
"O c #57B163",
"+ c None",
/* pixels */
"++++++++++++++++++++++++++++++++++++++++++++++++++++++++++++++++",
"++++++++++++++++++++++++++++++++++++++++++++++++++++++++++++++++",
"++++++++++++++++++++++++++++++++++++++++++++++++++++++++++++++++",
"++++++++++++++++++++++++++++++++++++++++++++++++++++++++++++++++",
"++++++++++++++++++++++++++++++++++++++++++++++++++++++++++++++++",
"++++++++++++++++++++++++++++++++++++++++++++++++++++++++++++++++",
"++++++++++++++++++++++++++++++++++++++++++++++++++++++++++++++++",
"++++++++++++++++++++++++++++++++++++++++++++++++++++++++++++++++",
"++++++++++++++++++++                        ++++++++++++++++++++",
"++++++++++++++++++++                        ++++++++++++++++++++",
"++++++++++++++++++++                        ++++++++++++++++++++",
"++++++++++++++++++++                        ++++++++++++++++++++",
"++++++++++++        XXXXXXXXXXXXXXXXXXXXXXXX        ++++++++++++",
"++++++++++++        XXXXXXXXXXXXXXXXXXXXXXXX        ++++++++++++",
"++++++++++++        XXXXXXXXXXXXXXXXXXXXXXXX        ++++++++++++",
"++++++++++++        XXXXXXXXXXXXXXXXXXXXXXXX        ++++++++++++",
"++++++++    XXXXXXXXooooooooooooooooooooooooXXXXXXXX    ++++++++",
"++++++++    XXXXXXXXooooooooooooooooooooooooXXXXXXXX    ++++++++",
"++++++++    XXXXXXXXooooooooooooooooooooooooXXXXXXXX    ++++++++",
"++++++++    XXXXXXXXooooooooooooooooooooooooXXXXXXXX    ++++++++",
"++++    XXXXooooooooooooooooooooooooooooooooooooooooXXXX    ++++",
"++++    XXXXooooooooooooooooooooooooooooooooooooooooXXXX    ++++",
"++++    XXXXooooooooooooooooooooooooooooooooooooooooXXXX    ++++",
"++++    XXXXooooooooooooooooooooooooooooooooooooooooXXXX    ++++",
"    XXXXooooooooOOOOOOOOooooooooooooooooooooooooooooooooXXXX    ",
"    XXXXooooooooOOOOOOOOooooooooooooooooooooooooooooooooXXXX    ",
"    XXXXooooooooOOOOOOOOooooooooooooooooooooooooooooooooXXXX    ",
"    XXXXooooooooOOOOOOOOooooooooooooooooooooooooooooooooXXXX    ",
"    ooooooooOOOOOOOOoooooooooooooooooooooooo        oooooooo    ",
"    ooooooooOOOOOOOOoooooooooooooooooooooooo        oooooooo    ",
"    ooooooooOOOOOOOOoooooooooooooooooooooooo        oooooooo    ",
"    ooooooooOOOOOOOOoooooooooooooooooooooooo        oooooooo    ",
"    oooooooooooooooooooo        oooooooooooo        oooooooo    ",
"    oooooooooooooooooooo        oooooooooooo        oooooooo    ",
"    oooooooooooooooooooo        oooooooooooo        oooooooo    ",
"    oooooooooooooooooooo        oooooooooooo        oooooooo    ",
"    ooooooooooooXXXXXXXX        XXXXXXXXXXXXXXXXXXXXoooooooo    ",
"    ooooooooooooXXXXXXXX        XXXXXXXXXXXXXXXXXXXXoooooooo    ",
"    ooooooooooooXXXXXXXX        XXXXXXXXXXXXXXXXXXXXoooooooo    ",
"    ooooooooooooXXXXXXXX        XXXXXXXXXXXXXXXXXXXXoooooooo    ",
"    ooooXXXXXXXXXXXXXXXXXXXXXXXXXXXXXXXXXXXXXXXXXXXXXXXXoooo    ",
"    ooooXXXXXXXXXXXXXXXXXXXXXXXXXXXXXXXXXXXXXXXXXXXXXXXXoooo    ",
"    ooooXXXXXXXXXXXXXXXXXXXXXXXXXXXXXXXXXXXXXXXXXXXXXXXXoooo    ",
"    ooooXXXXXXXXXXXXXXXXXXXXXXXXXXXXXXXXXXXXXXXXXXXXXXXXoooo    ",
"    XXXXXXXXXXXXXXXXXXXXXXXXXXXXXXXXXXXXXXXXXXXXXXXXXXXX....    ",
"    XXXXXXXXXXXXXXXXXXXXXXXXXXXXXXXXXXXXXXXXXXXXXXXXXXXX....    ",
"    XXXXXXXXXXXXXXXXXXXXXXXXXXXXXXXXXXXXXXXXXXXXXXXXXXXX....    ",
"    XXXXXXXXXXXXXXXXXXXXXXXXXXXXXXXXXXXXXXXXXXXXXXXXXXXX....    ",
"++++    ........XXXXXXXXXXXXXXXXXXXXXXXXXXXXXXXX........    ++++",
"++++    ........XXXXXXXXXXXXXXXXXXXXXXXXXXXXXXXX........    ++++",
"++++    ........XXXXXXXXXXXXXXXXXXXXXXXXXXXXXXXX........    ++++",
"++++    ........XXXXXXXXXXXXXXXXXXXXXXXXXXXXXXXX........    ++++",
"++++++++        ....XXXXXXXXXXXXXXXXXXXXXXXX....        ++++++++",
"++++++++        ....XXXXXXXXXXXXXXXXXXXXXXXX....        ++++++++",
"++++++++        ....XXXXXXXXXXXXXXXXXXXXXXXX....        ++++++++",
"++++++++        ....XXXXXXXXXXXXXXXXXXXXXXXX....        ++++++++",
"++++++++++++++++                                ++++++++++++++++",
"++++++++++++++++                                ++++++++++++++++",
"++++++++++++++++                                ++++++++++++++++",
"++++++++++++++++                                ++++++++++++++++",
"++++++++++++++++++++++++++++++++++++++++++++++++++++++++++++++++",
"++++++++++++++++++++++++++++++++++++++++++++++++++++++++++++++++",
"++++++++++++++++++++++++++++++++++++++++++++++++++++++++++++++++",
"++++++++++++++++++++++++++++++++++++++++++++++++++++++++++++++++"
};
