/* XPM */
static char *result[] = {
/* columns rows colors chars-per-pixel */
"64 64 6 1 ",
"  c black",
". c #306837",
"X c #37773F",
"o c #3E8948",
"O c #57B163",
"+ c None",
/* pixels */
"++++++++++++++++++++++++++++++++++++++++++++++++++++++++++++++++",
"++++++++++++++++++++++++++++++++++++++++++++++++++++++++++++++++",
"++++++++++++++++++++++++++++++++++++++++++++++++++++++++++++++++",
"++++++++++++++++++++++++++++++++++++++++++++++++++++++++++++++++",
"++++++++++++++++++++++++++++++++++++++++++++++++++++++++++++++++",
"++++++++++++++++++++++++++++++++++++++++++++++++++++++++++++++++",
"++++++++++++++++++++++++++++++++++++++++++++++++++++++++++++++++",
"++++++++++++++++++++++++++++++++++++++++++++++++++++++++++++++++",
"++++++++++++++++++++                        ++++++++++++++++++++",
"++++++++++++++++++++                        ++++++++++++++++++++",
"++++++++++++++++++++                        ++++++++++++++++++++",
"++++++++++++++++++++                        ++++++++++++++++++++",
"++++++++++++        XXXXXXXXXXXXXXXXXXXXXXXX        ++++++++++++",
"++++++++++++        XXXXXXXXXXXXXXXXXXXXXXXX        ++++++++++++",
"++++++++++++        XXXXXXXXXXXXXXXXXXXXXXXX        ++++++++++++",
"++++++++++++        XXXXXXXXXXXXXXXXXXXXXXXX        ++++++++++++",
"++++++++    XXXXXXXXooooooooooooooooooooooooXXXXXXXX    ++++++++",
"++++++++    XXXXXXXXooooooooooooooooooooooooXXXXXXXX    ++++++++",
"++++++++    XXXXXXXXooooooooooooooooooooooooXXXXXXXX    ++++++++",
"++++++++    XXXXXXXXooooooooooooooooooooooooXXXXXXXX    ++++++++",
"++++    XXXXooooooooooooooooooooooooooooooooooooooooXXXX    ++++",
"++++    XXXXooooooooooooooooooooooooooooooooooooooooXXXX    ++++",
"++++    XXXXooooooooooooooooooooooooooooooooooooooooXXXX    ++++",
"++++    XXXXooooooooooooooooooooooooooooooooooooooooXXXX    ++++",
"    XXXXooooooooooooooooooooooooooooooooOOOOOOOOooooooooXXXX    ",
"    XXXXooooooooooooooooooooooooooooooooOOOOOOOOooooooooXXXX    ",
"    XXXXooooooooooooooooooooooooooooooooOOOOOOOOooooooooXXXX    ",
"    XXXXooooooooooooooooooooooooooooooooOOOOOOOOooooooooXXXX    ",
"    oooooooo        ooooooooooooooooooooooooOOOOOOOOoooooooo    ",
"    oooooooo        ooooooooooooooooooooooooOOOOOOOOoooooooo    ",
"    oooooooo        ooooooooooooooooooooooooOOOOOOOOoooooooo    ",
"    oooooooo        ooooooooooooooooooooooooOOOOOOOOoooooooo    ",
"    oooooooo        oooooooooooo        oooooooooooooooooooo    ",
"    oooooooo        oooooooooooo        oooooooooooooooooooo    ",
"    oooooooo        oooooooooooo        oooooooooooooooooooo    ",
"    oooooooo        oooooooooooo        oooooooooooooooooooo    ",
"    ooooooooXXXXXXXXXXXXXXXXXXXX        XXXXXXXXoooooooooooo    ",
"    ooooooooXXXXXXXXXXXXXXXXXXXX        XXXXXXXXoooooooooooo    ",
"    ooooooooXXXXXXXXXXXXXXXXXXXX        XXXXXXXXoooooooooooo    ",
"    ooooooooXXXXXXXXXXXXXXXXXXXX        XXXXXXXXoooooooooooo    ",
"    ooooXXXXXXXXXXXXXXXXXXXXXXXXXXXXXXXXXXXXXXXXXXXXXXXXoooo    ",
"    ooooXXXXXXXXXXXXXXXXXXXXXXXXXXXXXXXXXXXXXXXXXXXXXXXXoooo    ",
"    ooooXXXXXXXXXXXXXXXXXXXXXXXXXXXXXXXXXXXXXXXXXXXXXXXXoooo    ",
"    ooooXXXXXXXXXXXXXXXXXXXXXXXXXXXXXXXXXXXXXXXXXXXXXXXXoooo    ",
"    ....XXXXXXXXXXXXXXXXXXXXXXXXXXXXXXXXXXXXXXXXXXXXXXXXXXXX    ",
"    ....XXXXXXXXXXXXXXXXXXXXXXXXXXXXXXXXXXXXXXXXXXXXXXXXXXXX    ",
"    ....XXXXXXXXXXXXXXXXXXXXXXXXXXXXXXXXXXXXXXXXXXXXXXXXXXXX    ",
"    ....XXXXXXXXXXXXXXXXXXXXXXXXXXXXXXXXXXXXXXXXXXXXXXXXXXXX    ",
"++++    ........XXXXXXXXXXXXXXXXXXXXXXXXXXXXXXXX........    ++++",
"++++    ........XXXXXXXXXXXXXXXXXXXXXXXXXXXXXXXX........    ++++",
"++++    ........XXXXXXXXXXXXXXXXXXXXXXXXXXXXXXXX........    ++++",
"++++    ........XXXXXXXXXXXXXXXXXXXXXXXXXXXXXXXX........    ++++",
"++++++++        ....XXXXXXXXXXXXXXXXXXXXXXXX....        ++++++++",
"++++++++        ....XXXXXXXXXXXXXXXXXXXXXXXX....        ++++++++",
"++++++++        ....XXXXXXXXXXXXXXXXXXXXXXXX....        ++++++++",
"++++++++        ....XXXXXXXXXXXXXXXXXXXXXXXX....        ++++++++",
"++++++++++++++++                                ++++++++++++++++",
"++++++++++++++++                                ++++++++++++++++",
"++++++++++++++++                                ++++++++++++++++",
"++++++++++++++++                                ++++++++++++++++",
"++++++++++++++++++++++++++++++++++++++++++++++++++++++++++++++++",
"++++++++++++++++++++++++++++++++++++++++++++++++++++++++++++++++",
"++++++++++++++++++++++++++++++++++++++++++++++++++++++++++++++++",
"++++++++++++++++++++++++++++++++++++++++++++++++++++++++++++++++"
};
