/* XPM */
static char *result[] = {
/* columns rows colors chars-per-pixel */
"64 64 185 2 ",
"   c #3B3E3C",
".  c #3B3F3C",
"X  c #3C3C3C",
"o  c #3C3D3C",
"O  c gray24",
"+  c #3C3E3C",
"@  c #3D3E3D",
"#  c #3E3E3E",
"$  c #3E3F3E",
"%  c #3F3F3F",
"&  c #3B403B",
"*  c #3A443B",
"=  c #3B403C",
"-  c #3C413C",
";  c #3C403D",
":  c #3C423C",
">  c #3C423D",
",  c #3D423D",
"<  c #3D413E",
"1  c #3E403F",
"2  c #3F403F",
"3  c #3E413F",
"4  c #3F413F",
"5  c #3D433E",
"6  c #3E423E",
"7  c #3E433E",
"8  c #3E423F",
"9  c #3B443C",
"0  c #3A473C",
"q  c #3D453D",
"w  c #3C463D",
"e  c #3C473D",
"r  c #3D443E",
"t  c #3C453E",
"y  c #3D453E",
"u  c #3C463E",
"i  c #374C3A",
"p  c #374D3A",
"a  c #374F3A",
"s  c #38483A",
"d  c #38493A",
"f  c #39483B",
"g  c #384A3A",
"h  c #384E3B",
"j  c #3B483D",
"k  c #3B493D",
"l  c #394B3C",
"z  c #3A4A3C",
"x  c #3A4B3C",
"c  c #3E493F",
"v  c #394D3C",
"b  c #384E3C",
"n  c #394E3C",
"m  c #3B4F3E",
"M  c #3C4D3E",
"N  c #3C4E3E",
"B  c #3C4F3E",
"V  c #2F5C37",
"C  c #315A37",
"Z  c #305B37",
"A  c #305C37",
"S  c #365039",
"D  c #365139",
"F  c #355239",
"G  c #355339",
"H  c #365239",
"J  c #35513A",
"K  c #36513A",
"L  c #37513A",
"P  c #37503B",
"I  c #37513B",
"U  c #35523A",
"Y  c #35533A",
"T  c #36523A",
"R  c #36533A",
"E  c #37533B",
"W  c #335638",
"Q  c #335738",
"!  c #335639",
"~  c #335739",
"^  c #33553A",
"/  c #345438",
"(  c #345439",
")  c #355439",
"_  c #345539",
"`  c #345639",
"'  c #34543A",
"]  c #35543A",
"[  c #36543B",
"{  c #37553B",
"}  c #35573A",
"|  c #36563B",
" . c #37563B",
".. c #36573B",
"X. c #36553C",
"o. c #37553C",
"O. c #39503D",
"+. c #3A533E",
"@. c #3B533E",
"#. c #38543C",
"$. c #3B573E",
"%. c #3B573F",
"&. c #315938",
"*. c #325838",
"=. c #335838",
"-. c #325938",
";. c #325839",
":. c #335839",
">. c #325939",
",. c #335939",
"<. c #305A38",
"1. c #315A38",
"2. c #305B38",
"3. c #345839",
"4. c #35583A",
"5. c #34593A",
"6. c #36583B",
"7. c #37583C",
"8. c #3A583E",
"9. c #3F4540",
"0. c #3F4F41",
"q. c #3F5342",
"w. c #3E5641",
"e. c gray25",
"r. c #414141",
"t. c gray26",
"y. c #434343",
"u. c #424542",
"i. c #434443",
"p. c #444444",
"a. c gray27",
"s. c #454746",
"d. c #464646",
"f. c #464746",
"g. c gray28",
"h. c #434A43",
"j. c #434B43",
"k. c #444944",
"l. c #444845",
"z. c #444A44",
"x. c #464847",
"c. c #464A47",
"v. c #464B47",
"b. c #424E44",
"n. c #464C47",
"m. c #474E48",
"M. c #484848",
"N. c #494949",
"B. c gray29",
"V. c #4B4B4B",
"C. c #484C49",
"Z. c #484D49",
"A. c #494C4A",
"S. c #4A4C4A",
"D. c #4A4C4B",
"F. c #494E4A",
"G. c #4B4F4C",
"H. c #4C4C4C",
"J. c gray30",
"K. c #4D4E4D",
"L. c #4C4F4D",
"P. c #4E4E4E",
"I. c #4E4F4E",
"U. c gray31",
"Y. c #415043",
"T. c #405643",
"R. c #405743",
"E. c #435245",
"W. c #445146",
"Q. c #445546",
"!. c #485249",
"~. c #4A524B",
"^. c #4A504C",
"/. c #4B534C",
"(. c #4C504C",
"). c #4C504D",
"_. c #4F504F",
"`. c #4E524F",
"'. c #505050",
"]. c #505150",
"[. c #515151",
"{. c #505250",
"}. c gray32",
"|. c #535353",
" X c gray33",
/* pixels */
"% % % % % % % % u Z P s.[.}.[.M.% % % % % % % % % % % % % % % % % % % % % % % % % % % % % % t.J.[.[.U.y.% % % % % % % % % % % % ",
"% % % % % % % 4 a V b x.[.}.[.d.% % % % % % % % % # % % % # % % % % % % % % % % % % % % % % p.U.[.[.J.t.% % % % % % % % % % % % ",
"% % % % % % % 3 T V O.D.[.[.'.p.% % % % % % % % % # % % # # % % % % % % % # % % % % % % % % g.}. X[.N.e.% % % % % % % % % % % % ",
"% % % % % % % 5 ! A o.L.[.[.P.y.% % % % % % % % % # # # % % % % % % % % % # O % % % % % % r.H.[. X'.p.% % % % % % % % % % % % % ",
"% % % % % % % 6 Y ' z.'.[.[.V.r.% % % % % % % % % O # % % % % % % % % % % % # # % % % % % y.U.[.}.g.% % % % % % % % % % % % % % ",
"% % % % % % % 6 F U c.[.[.[.g.% % % % % % % % % % # # % % % % % % % % % % % O % % % % % % a.'.[.}.y.O # % % % % % % % % % % % % ",
"% % % % % % % < J T C.[.[.'.y.O # % % % % % % % O % % O % % % % % % % % % % # % % % % O O a.[.[.}.t.O # % % % % % % % % % % % % ",
"% % % % % % % # ; 6 N.[.[.'.r.O # % % % % % % % % % % # % % % % % % % % % % # # % % # O O B.'.[.}.t.O % % % % % % % % % % % % % ",
"# # # # # # # O O % N.[.[.'.r.O # % % % % % % % % % % % % % % % % % % % % % O O # # O O % J.'.[.|.r.O # % # % % % % % % % % % % ",
"O O O O O O O O O % B.[.[.'.y.O O O O O O O O O O O O O O O O O O O O O O O O O O O O O % P.[.[.|.r.O O O O O O O O O O O O O # ",
"O O O O O O O O O e.B.[.[.'.p.O O O O O O O O O O O O O O O O O O O O O O O O O O O O # a.[.[.[.N.O O O O O O O O O O O O O O # ",
"r.t.t.t.t.t.t.t.t.p.V.[.[.[.g.r.r.t.t.t.r.t.t.t.t.r.r.r.r.t.t.r.% e.r.r.r.r.r.r.t.t.t.y.B.[.}.[.V.y.p.p.p.y.p.p.p.a.M.N.d.y.t.y.",
"J.P.P.P.P.P.P.P.P.P.'.[.[.[.U.P.P.P.P.P.P.P.P.P.P.P.P.P.P.P.P.P.J.P.P.P.P.P.P.P.P.P.P.U.'.[.[.[.'.'.'.'.'.'.[.[.[.[.[.[.[.'.U.P.",
"[.[.[.[.[.[.[.[.[.[.[.[.[.[.[.[.[.[.[.[.[.[.[.[.[.[.[.[.[.[.[.[.[.[.[.[.[.[.[.[.[.[.[.[.[.[.[.[.[.[.[.[.[.[.[.}.[.[.[.}.}.[.[.[.",
"[.[.[.[.[.[.[.[.[.[.[.[.[.[.[.[.[.[.[.[.[.[.[.[.[.[.[.[.[.[.[.[.[.[.[.[.[.[.[.[.[.[.[.[.[.[.[.[.[.[.[.[.[.[.[.[.[.[.[.[.[.[.[.[.",
"J.P.P.P.P.P.P.P.P.P.P.U.U.U.P.P.P.P.P.P.P.P.U.[.}.[.'.(.(.L.L.L.L.G.^.^.^.^.^.^.^.L.P.J.H.B.B.B.B.B.B.B.B.B.N.M.N.B.V.V.B.V.J.P.",
"t.y.y.y.y.y.y.y.y.y.y.y.t.r.y.y.y.y.y.y.y.y.M.[.[.[.F. .| X.o.{  .} ,.>.>.>.>.>.>.#.u.t.r.r.r.r.r.r.r.r.r.r.e.e.e.e.e.% e.r.t.y.",
"% % % % % % % % % % % % # # % % % % % % % % a.'.[.].q.Z ;.-.Z V V Z &.-.-.-.-.-.-.R 6 % % % % % % % % % % % % % % % % % % % % % ",
"% % % % % % % % % % % % # # O # % % % % % % a.'.[.].q.2.^ &.&.I e w r r r r r r r 6 % % % % % % % % % % % % # # % % % % % % % % ",
"% % % % % % % % % % % % % O % % % % % % % % a.'.[.].Y.-.] Y e 4 % % % % % % % % % % % % % % % % % % % % % % O # % % % % % % % % ",
"% % % % % % % % % % % % % O % % % % % % % % a.'.[.].Y.&.' T 6 % % % % % % % % % % % % % % % % % % % % % % # # % % % % % % % % % ",
"% % % % % % % % % % % % % O % % % % % % % % a.'.[._.0.<.&.t % % % % % % % % % % % % % % % % % % % % % % # # % % % % % % % % % % ",
"% % % % % % % % % % % % % # % % % % % % % % a.'.[._.0.Z ' 6 % % % % % % % % % % % % % % % % % % % % % % # % % % % % % % % % % % ",
"% % % % % % % % % % % % % O # % % % % % % % a.'.[.[.v./ T 6 % % % % % % % % % % O # % % % % % % % % % # % % % % % % % % % % % % ",
"% % % % # # # % % % % % % # X % % % % % % % a.'.[.[.n.*.l 2 % % % % % % % % % % # % % % % % % % % % % % O % % % % % % % % % % % ",
"% % % % % % # O # % % % % # # % % % % % % % a.'.[.[.N.: $ % % % % % % % % % % # % % % % % % % % % % % # # % % % % % % % % # % % ",
"% % % % % % % % # # # O O O # % % % % % # O t.'.[.[.N.# X % % % % % % % % % O % % % % % % % % % % % % # # % % % % % % % % O % % ",
"% % % % % % % % % % % O O % % % % % % % O O # P.[.[.M.O X % % % % % % % % % O % % % % % % % % % % % % O % % % % % % % % % # % % ",
"% % % % % % % % % % % % % # O % % % % % O O # P.[.[.N.O X % % % % % % % 7 v # # % % % % % % % % % % % O % % % % % % % % % # % % ",
"% % % % % % % % % % % % % % O # % % % % O O # P.[.[.N.O X % % % % % % % % I z # % % % % % % % % % % % # % % % % % % % % % # % % ",
"% % % % % % % % % % % % % % % % O % % % O O # P.[.[.N.O X % % % % % % % % _ T # % % % % % % % % % % # # % % % % % % % % % # % % ",
"% % % % % % % % % % % % % % % % % # % # O O O J.[.[.M.X X % % % % % % % % j L 7 % % % % % % % % % % % % % % % % % % % % % # % % ",
"% % # # # O O O # # # # # # # # # O # # O O O J.[.[.g.X X # % % % % % % % j I 7 % % % % % % % % % % % % % % % % % % % % % % % % ",
"O O O O O O O O O O O O O O O O O O O O O O O J.[.[.N.O X X O O O O - 0 O , ( O O O O O O O O O O O O O O O O O O O O O O X X X ",
"O O O O O O O O O O O O O O O O O O O # # O # P.[.[.N.O X O X X X X S _ _ ( ` g X X X X X X X X X X X X X X X X X X X X X X X X ",
"% % # O O O O O O O O O O O O O O O # % % % p.'.[.[.N.O X p D G W W ( _ Q :.-.~ ! _ H   = * * * = X X X X X X X X X X X X X X X ",
"J.H.B.d.a.a.a.a.a.a.a.a.a.a.a.a.p.p.a.d.d.d.N.[.[.[.H.y.O n K G ~ ~ _ ! :.~ :.Q Q ` =.*.Q ! G G i X X X X X X X X X X X X X X g.",
"[.[.[.[.[.[.[.[.[.[.[.[.[.[.[.[.[.[.[.[.[.[.[.[.}.[.[.[.P.'.U.P.U.U.!.w.T.4.6.7.!.!.).E.F.F.H.H.H.H.H.H.H.H.H.H.H.H.H.H.H.H.J.[.",
"}.[.[.}.}.}.}.}.}.}.}.}.}.}.}.}.}.}.}.}.}.}.}.}.}.}.}.}.}.}.}.}.}.}.}.8.,.-.$.R.}.}.[.[.[.[.[.[.[.[.[.[.}.}.}.}.}.[.[.[.[.[.[.[.",
"[.'.'.[.[.[.[.[.[.[.[.[.[.[.[.[.[.[.[.[.[.[.[.[.[.[.[.[.[.[.[.[.[.`.6.4.5.-.%./.[.[.[.[.[.[.[.[.[.[.[.[.[.[.[.[.[.[.'.'.'.'.'.U.",
"a.p.p.a.d.d.d.d.d.d.d.d.d.d.d.d.d.d.d.d.d.f.l.k.h.j.z.j.j.j.z.@.| 3.,...3.:.b.P.[.[.U.V.B.B.B.B.B.B.B.N.g.d.d.d.a.a.a.a.a.a.p.y.",
"% % % % % % % % % % % % % % % % % % % % 2 j _ 1.Z Z &.Z Z Z &.C &.-.1.1.-.=.c P.[.[.P.p.r.r.r.r.r.r.r.e.% % % % % % % % % % % % ",
"% % % % % % % % % % % % % # # % % % % % % 6 k h ] ~ -.~ ! ~ &.Z &.-.1.1.-.1.N P.[.[.P.y.% % % % % % % % % % % % % % % % # # % % ",
"% % % % % % % % % % % % % # # % % % % % % % 2 4 8 7 r 7 7 7 r u r y v &.~ C B K.[.[.P.y.% % % % % % % % % % % % % % % % # # % % ",
"% % % # % % % % % % % % % % O % % % % % % % % % % % % % % % % % % % y V ` Z N K.[.[.P.y.% % # # % % % % % % % % % % % % # % % % ",
"% % % # # % % % % % % % % % # # % % % % % % % % % % % % % % % % % % 2 h Z Z N K.[.[.J.% % % % O O % % % % % % % % % % # # % % % ",
"% % % % O % % % % % % % % % % # % % % % % % % % % % % % % % % % % % % q &.V m K.[.[.V.X # % % % # % % % % % % % % % % # % % % % ",
"% % % % # # % % % % % % % % % O O % % % % % % % % % % % % % % % % % % 6 Y Z M I.[.[.V.X O % % % % # % % % % % % % % % O # # # # ",
"% % % % # % % % % % % % % % % % O % % % % % % % % % % % % % % % % % % % . 9 i.'.[.'.a.X O % % % % # # % % % % % % % % O % % % # ",
"% % % % # % % % % % % % % % % # # # # % % % % % % % % % % % % % % % % # X X a.[.}.'.y.X O % % % % % # % % % % % % % % % % % % % ",
"% % % % % % % % % % % % % % % O % % % # # O # % % % % % % % % % % % % # X O d.[.}.'.t.X O % % % % % O O # % % % % % % % % % % % ",
"% % % % % % % % % % % % % % # # % % % % # O # # % % % % % % % % % % % O X O M.[.[.'.r.X O % % % % # # % % # # % % % % % % % % % ",
"% % % % % % % % % % % % % % # # % % % % % % # # % % % % % % % % % % % O X X g.[.[.'.e.X # % % % % # % % % % # # % % % % % % % % ",
"% % % % % % % % % % % % % % # # % % % % % % % # % % % % % % % % % % % O X X B.[.[.U.e.X # % % % O % % % % % % % # % % 1 5 6 6 5 ",
"6 5 5 5 5 5 5 % % % % % % % % % % % % % % % % O O % % % % % % % % % % O X X V.[.[.P.e.X O % % % O % % % % % % % O % 1 x _ Y Y -.",
"_ *.&.&.&.&.*.> # # # # # # # # # # # # # # # # # # # # # # # # # # # O X O H.[.[.J.% X O O # # # # # # # # # # # # $ l _ Y U l ",
"f d d d d d s o X X X X X X X X X X X X X X X X X X X X X X X X X X X X X O H.[.[.J.% X X X X X X X X X X X X X X X X + & . . o ",
"2 @ @ @ @ o o X X X X X X X X X X X X O X X X X X X X X X X X O O # % e.# % J.[.[.P.r.% X O O O O O O O O O O O O O O O O O O O ",
"P.P.J.J.J.B.B.B.B.B.B.B.B.B.V.V.V.V.H.J.H.H.H.H.H.H.H.H.H.H.H.J.P.U.'.'.H.B.U.[.[.[.U.U.J.P.P.P.P.P.P.P.P.P.P.P.P.P.P.P.J.H.H.H.",
"[.[.[.[.[.[.[.[.[.[.[.[.[.[.[.[.[.[.[.[.[.[.[.[.[.[.[.[.[.[.[.[.[.[.[.[.[.[.[.[.[.[.[.[.[.[.[.[.[.[.[.[.[.[.[.[.[.[.[.[.[.[.[.[.",
"U.[.[.[.[.[.[.[.[.[.[.[.[.[.[.[.[.[.[.[.[.[.[.[.[.[.[.[.[.[.[.[.[.[.].[.[.'.[.[.[.[.[.[.[.[.[.[.[.[.[.[.[.[.[.[.[.[.[.[.[.[.[.[.",
"a.M.B.B.B.B.B.B.B.B.V.'.[.[.'.V.B.B.B.B.B.B.B.B.B.B.B.V.H.H.H.H.V.D.W.m.Z.C.A.A.A.C.A.S.U.[.[.U.V.B.B.B.B.B.B.B.B.B.B.H.J.P.P.P.",
"% e.r.r.r.r.r.r.r.r.p.U.[.[.U.p.r.r.r.r.r.r.r.r.r.r.r.r.r.r.r.r.r.9.;.V >.[ E E E E E +.~.[.[.U.a.r.r.r.r.r.r.r.r.r.r.r.t.y.y.y.",
"% % % % % % % % % % y.P.[.[.P.y.% % % % % % % % % % % % % % % % % % 5 y x T R R R R ) 1.Q.{.[.U.y.% % % % % % % % % % % % % % % "
};
