/* XPM */
static char *result[] = {
/* columns rows colors chars-per-pixel */
"64 64 28 1 ",
"  c #333C4E",
". c #364052",
"X c #384154",
"o c #3C465A",
"O c #3F4A5F",
"+ c #3F4A60",
"@ c #434E64",
"# c #445066",
"$ c #46526A",
"% c #49556D",
"& c #4B5770",
"* c #4D5A74",
"= c #4F5D78",
"- c #515D76",
"; c #515E79",
": c #54627D",
"> c #566482",
", c #586683",
"< c #5B6986",
"1 c #5C6B89",
"2 c #606F8D",
"3 c #62718E",
"4 c #647493",
"5 c #687795",
"6 c #687896",
"7 c #6B7A9A",
"8 c #6F7FA0",
"9 c #7080A0",
/* pixels */
"                          .XO@OOXX                              ",
"XXXXXXXXXXXXXXXX..XXXXXXXXooO@@OOXXXXXXX..XXXXX.XXXXXXXXXX...XXX",
"@@@@@@@OO@@@@@@@@@@O@@@@@@@@@@@@@@@@@@@@@@@O@@@@@@@O@@@@@@@@@@@@",
"---------------------------%%###%-------------------------------",
"<222:3225:3:::5:22222111:3::-%%-:::::::922222212:33:33:5::::::5:",
"445455565575755945454556555:----:59595:9554545545755555599957559",
"8887777795959595777777789753:--:59959599777777777777777799777999",
"9988777655555595757667779773:--::9995959557575775755757557579999",
"8888744455444244444444677853:--,:5995555533444444242434555557889",
"877542213:222212111111145552:&*:999:55:322121111222222225:355778",
"55431,>>::::>>:,,<<:,,<13432:%&;:95::3::>>::>>>,>>2>;2:::::35755",
"22,>>=**--:-**---;:-===><:::%#@%:::::---**--*=*==;;**&----::::3:",
"&-&&$##@@##@##$$%&&%%##%-&&%@Oo@----##@@###@###%&&&&###@#@%%----",
"@@@@@@@++++@++@@#%%#@@@@@@@OOOoO@@@@@@O@O+OOO@@@#$$#@@@O@OO@@@@@",
"####@#@#@@@@@#@@####@@@@##@@@@##@@@@@@@@@#@#@@@@@###@@@@@@@@@@@@",
"--------------*&%###%----------;--------------*%$$$$%-----------",
"222:32:311112,,;-%%-::2221111111222<2111:22222<;-%%&:2:2:32:3:33",
"5355555574555422-%%-225544846446454454746545444<;&*;:36775555555",
"7877777784848752:--:3567777788447777778677777742:**;258777777777",
"8888775748488773:--:3778874747687477474876778872:--:258877765557",
"8887753344487872:--:3578744444443344444444558844:--:278776445333",
"8875532212445752:--:2576442111122212111122344861:--:257544112233",
"77552222<1245742:-&:2566411111111<<111<111236641:-%:2375411<<<2<",
"7542222:<<124431:&-::3551111<1>1<<<<<1<<<<224441:---2254211<<<<<",
"433221<<<112222>-%&-,14321111>111111<<<<1<11241>-&&=,141211>111<",
"2211<<<<<><111>>-%%-:<<<1<1>11<><<><<<><1><11<>>*%&*>,11111>>11>",
">>>>>>>>>>>>>>>*&$#%-:>>>>>>>>>>>>>>>>>>>>>>>>>>&$$&=;>>>>>>>>>>",
"******&*&&&>*&%$#OO#$&***=*===>==****>+>****==$+#++@%&******+>**",
"$###$###++###$@@OooOO@##+$#%&&&&$$$#+++&#####@@@+ooo@@@#####++*+",
"+@o@++O@++++++@ooooooOOO++@@#$$$@@++++++++@++OOOooooOOO+++++++++",
"@@@@@@@@$++@@#@@#@@@@@#@#@#@@##@##@@#+++#@@@@@@@@@@@@@@@@@@@#+$+",
"*------->>===*==--------==*&%##%&*====>>---------;*=--;--;===*>>",
"111111111<1111119:9:::1:::::*%%*;<22222:111111112211211<1212<22,",
"66646647494446649:919991999<-*%:<2454366744774444554444844545555",
"99969677969699779:199999991::--:25787777777787787877488887778778",
"9997964766664477999919199999:*-:25888766747747474477844457777888",
"9967444444444444:9199<99993::-*:27776544444444444444444444457888",
"999644411211111111<::9:93993:*-:27775322111111222221111122337788",
"78464111<111111111<<:1:93931:**:2474222,11111111<<11111111225777",
"46441111<<<1<<1><<<<:9::939::&*:234422<<>1<<<<1><<<<>11<,1224557",
"44422111<<<1<<11<<<<<111331<=&&=,222111<<<1<<<<<11<<<<1<1<112444",
"2111<11><<<<<<<><<<<<>1111<:*%%=;<1111<<><<<<<>1>><><1>><<<<1111",
">1<<>>>>:>::>>>>>>>>>>>>:>:-&$$&-;>>>>>>>>>>>>>><>>>>>>>>>>>>>>>",
"=+>+==>+*-=-*=*==:=>====**&%+++$%&******&>+>***=>>=>===&****&&&>",
"+%+%++++$#$$$$%&&&*&+&+&#+#OOooO@@@@$@##++###$$%$&&&$$$@$##@+$+&",
"++++++++OOOOO++++$$$++++OOOOoooOOoO@++++++++++@@+$$$@@@@+++@++++",
"%++++++++#+#+#+$$$+$++++###+++++@@@@@#@#+++@@###$$$+@@@@@@@@@@+$",
";:===>>1:-----*&$$$%===>-;;--:=*=------->>>*=*&&$$$%&&---====**>",
"11111111111111::*%%*::-:3::1><<<111211111<<<1<,:&%%&-:22:32:32:3",
"6639646655666532-*%::99399999393666466469663963<=&*;235555565557",
"9599777777779652:-;:3993933993397784777759999941;&->257877777777",
"9999777666779963:--:3999993993996676666663669692,--;278877676575",
"9996644444667963:=*:<9999:<9<1914444444434669942,--:377774445334",
"9996432212346753:=*:<193:99111132121211213344962:&-,257543312222",
"596432<<<<145652:&*:19399::11<111<111<1111146642;-&:245541<1112,",
"644331<<<133353::*&;>193:911<<<<1<<<<<<<<<134441;-&;2244311<<<<,",
"4432111<<<<1421>=&&=:99<11<<<<<1<<><<<<<<<11231>=&&=>13211<>111<",
"111111<<111<11>>*%%==:1111>><<<<><>><1<<<<1111>>*%%=><11111>>1<>",
"<>>>>>>>>>>>>>>>&%$*=:>>>>>>>>>>>>>>>>>>>>,,>>>=&%%&=>>>>>>>>>>>",
">>=>=>:;>=>==>=&%%$&*=;:>>>=>>;>>>>>>>=>:;:;>==*&$$%*=::>>=>>>>>",
"+=**&********=&&$$$$+*==+>+>;=*==>>>+>===******%$$$$%&***=*=+>**",
"+=*+%%%%%%$%+&&+$%+%&&+*+==+*++*++++&+++%%%%$%$%+$#$$$$$$$$%&+&+",
"*+++##$$+$$$$$+%$+%++&*++++++&+*+++=>++=####+###$++$$$+$+$$$%++%",
"++*+#+#+$++$+$+++$+%++++*=++*++++*+++++++###+#+###$+$+$$$+$++%++"
};
